<?xml version="1.0" encoding="utf-8" standalone="no"?>
<!DOCTYPE svg PUBLIC "-//W3C//DTD SVG 1.1//EN"
  "http://www.w3.org/Graphics/SVG/1.1/DTD/svg11.dtd">
<svg xmlns:xlink="http://www.w3.org/1999/xlink" width="579.6pt" height="276.624pt" viewBox="0 0 579.6 276.624" xmlns="http://www.w3.org/2000/svg" version="1.1">
 <metadata>
  <rdf:RDF xmlns:dc="http://purl.org/dc/elements/1.1/" xmlns:cc="http://creativecommons.org/ns#" xmlns:rdf="http://www.w3.org/1999/02/22-rdf-syntax-ns#">
   <cc:Work>
    <dc:type rdf:resource="http://purl.org/dc/dcmitype/StillImage"/>
    <dc:date>2026-10-09T14:50:55.897185</dc:date>
    <dc:format>image/svg+xml</dc:format>
    <dc:creator>
     <cc:Agent>
      <dc:title>Matplotlib v3.11.2, https://matplotlib.org/</dc:title>
     </cc:Agent>
    </dc:creator>
   </cc:Work>
  </rdf:RDF>
 </metadata>
 <defs>
  <style type="text/css">*{stroke-linejoin: round; stroke-linecap: butt}</style>
 </defs>
 <g id="figure_1">
  <g id="patch_1">
   <path d="M 0 276.624 
L 579.6 276.624 
L 579.6 0 
L 0 0 
z
" style="fill: #ffffff"/>
  </g>
  <g id="axes_1">
   <g id="patch_2">
    <path d="M 195.490141 77.472941 
L 399.828169 77.472941 
L 399.828169 31.635294 
L 195.490141 31.635294 
z
" clip-path="url(#p0268a25ce3)" style="fill: #f4f3f0; stroke: #d9d8d4; stroke-linejoin: miter"/>
   </g>
   <g id="patch_3">
    <path d="M 215.138028 73.305882 
L 293.729577 73.305882 
L 293.729577 35.802353 
L 215.138028 35.802353 
z
" clip-path="url(#p0268a25ce3)" style="fill: #2a78d6; stroke: #ffffff; stroke-width: 1.5; stroke-linejoin: miter"/>
   </g>
   <g id="patch_4">
    <path d="M 293.729577 73.305882 
L 372.321127 73.305882 
L 372.321127 35.802353 
L 293.729577 35.802353 
z
" clip-path="url(#p0268a25ce3)" style="fill: #1baf7a; stroke: #ffffff; stroke-width: 1.5; stroke-linejoin: miter"/>
   </g>
   <g id="text_1">
    <!-- Band A -->
    <g style="fill: #52514e" transform="translate(282.489311 25.384706) scale(0.085 -0.085)">
     <defs>
      <path id="DejaVuSans-25" d="M 1259 2228 
L 1259 519 
L 2272 519 
Q 2781 519 3026 730 
Q 3272 941 3272 1375 
Q 3272 1813 3026 2020 
Q 2781 2228 2272 2228 
L 1259 2228 
z
M 1259 4147 
L 1259 2741 
L 2194 2741 
Q 2656 2741 2882 2914 
Q 3109 3088 3109 3444 
Q 3109 3797 2882 3972 
Q 2656 4147 2194 4147 
L 1259 4147 
z
M 628 4666 
L 2241 4666 
Q 2963 4666 3353 4366 
Q 3744 4066 3744 3513 
Q 3744 3084 3544 2831 
Q 3344 2578 2956 2516 
Q 3422 2416 3680 2098 
Q 3938 1781 3938 1306 
Q 3938 681 3513 340 
Q 3088 0 2303 0 
L 628 0 
L 628 4666 
z
" transform="scale(0.015625)"/>
      <path id="DejaVuSans-44" d="M 2194 1759 
Q 1497 1759 1228 1600 
Q 959 1441 959 1056 
Q 959 750 1161 570 
Q 1363 391 1709 391 
Q 2188 391 2477 730 
Q 2766 1069 2766 1631 
L 2766 1759 
L 2194 1759 
z
M 3341 1997 
L 3341 0 
L 2766 0 
L 2766 531 
Q 2569 213 2275 61 
Q 1981 -91 1556 -91 
Q 1019 -91 701 211 
Q 384 513 384 1019 
Q 384 1609 779 1909 
Q 1175 2209 1959 2209 
L 2766 2209 
L 2766 2266 
Q 2766 2663 2505 2880 
Q 2244 3097 1772 3097 
Q 1472 3097 1187 3025 
Q 903 2953 641 2809 
L 641 3341 
Q 956 3463 1253 3523 
Q 1550 3584 1831 3584 
Q 2591 3584 2966 3190 
Q 3341 2797 3341 1997 
z
" transform="scale(0.015625)"/>
      <path id="DejaVuSans-51" d="M 3513 2113 
L 3513 0 
L 2938 0 
L 2938 2094 
Q 2938 2591 2744 2837 
Q 2550 3084 2163 3084 
Q 1697 3084 1428 2787 
Q 1159 2491 1159 1978 
L 1159 0 
L 581 0 
L 581 3500 
L 1159 3500 
L 1159 2956 
Q 1366 3272 1645 3428 
Q 1925 3584 2291 3584 
Q 2894 3584 3203 3211 
Q 3513 2838 3513 2113 
z
" transform="scale(0.015625)"/>
      <path id="DejaVuSans-47" d="M 2906 2969 
L 2906 4863 
L 3481 4863 
L 3481 0 
L 2906 0 
L 2906 525 
Q 2725 213 2448 61 
Q 2172 -91 1784 -91 
Q 1150 -91 751 415 
Q 353 922 353 1747 
Q 353 2572 751 3078 
Q 1150 3584 1784 3584 
Q 2172 3584 2448 3432 
Q 2725 3281 2906 2969 
z
M 947 1747 
Q 947 1113 1208 752 
Q 1469 391 1925 391 
Q 2381 391 2643 752 
Q 2906 1113 2906 1747 
Q 2906 2381 2643 2742 
Q 2381 3103 1925 3103 
Q 1469 3103 1208 2742 
Q 947 2381 947 1747 
z
" transform="scale(0.015625)"/>
      <path id="DejaVuSans-3" transform="scale(0.015625)"/>
      <path id="DejaVuSans-24" d="M 2188 4044 
L 1331 1722 
L 3047 1722 
L 2188 4044 
z
M 1831 4666 
L 2547 4666 
L 4325 0 
L 3669 0 
L 3244 1197 
L 1141 1197 
L 716 0 
L 50 0 
L 1831 4666 
z
" transform="scale(0.015625)"/>
     </defs>
     <use xlink:href="#DejaVuSans-25"/>
     <use xlink:href="#DejaVuSans-44" transform="translate(68.609375 0)"/>
     <use xlink:href="#DejaVuSans-51" transform="translate(129.890625 0)"/>
     <use xlink:href="#DejaVuSans-47" transform="translate(193.265625 0)"/>
     <use xlink:href="#DejaVuSans-3" transform="translate(256.75 0)"/>
     <use xlink:href="#DejaVuSans-24" transform="translate(288.53125 0)"/>
    </g>
   </g>
   <g id="text_2">
    <!-- CC1 (PCell) -->
    <g style="fill: #ffffff" transform="translate(227.843412 56.762457) scale(0.085 -0.085)">
     <defs>
      <path id="DejaVuSans-Bold-26" d="M 4288 256 
Q 3956 84 3597 -3 
Q 3238 -91 2847 -91 
Q 1681 -91 1000 561 
Q 319 1213 319 2328 
Q 319 3447 1000 4098 
Q 1681 4750 2847 4750 
Q 3238 4750 3597 4662 
Q 3956 4575 4288 4403 
L 4288 3438 
Q 3953 3666 3628 3772 
Q 3303 3878 2944 3878 
Q 2300 3878 1931 3465 
Q 1563 3053 1563 2328 
Q 1563 1606 1931 1193 
Q 2300 781 2944 781 
Q 3303 781 3628 887 
Q 3953 994 4288 1222 
L 4288 256 
z
" transform="scale(0.015625)"/>
      <path id="DejaVuSans-Bold-14" d="M 750 831 
L 1813 831 
L 1813 3847 
L 722 3622 
L 722 4441 
L 1806 4666 
L 2950 4666 
L 2950 831 
L 4013 831 
L 4013 0 
L 750 0 
L 750 831 
z
" transform="scale(0.015625)"/>
      <path id="DejaVuSans-Bold-3" transform="scale(0.015625)"/>
      <path id="DejaVuSans-Bold-b" d="M 2413 -844 
L 1484 -844 
Q 1006 -72 778 623 
Q 550 1319 550 2003 
Q 550 2688 779 3389 
Q 1009 4091 1484 4856 
L 2413 4856 
Q 2013 4116 1813 3408 
Q 1613 2700 1613 2009 
Q 1613 1319 1811 609 
Q 2009 -100 2413 -844 
z
" transform="scale(0.015625)"/>
      <path id="DejaVuSans-Bold-33" d="M 588 4666 
L 2584 4666 
Q 3475 4666 3951 4270 
Q 4428 3875 4428 3144 
Q 4428 2409 3951 2014 
Q 3475 1619 2584 1619 
L 1791 1619 
L 1791 0 
L 588 0 
L 588 4666 
z
M 1791 3794 
L 1791 2491 
L 2456 2491 
Q 2806 2491 2997 2661 
Q 3188 2831 3188 3144 
Q 3188 3456 2997 3625 
Q 2806 3794 2456 3794 
L 1791 3794 
z
" transform="scale(0.015625)"/>
      <path id="DejaVuSans-Bold-48" d="M 4031 1759 
L 4031 1441 
L 1416 1441 
Q 1456 1047 1700 850 
Q 1944 653 2381 653 
Q 2734 653 3104 758 
Q 3475 863 3866 1075 
L 3866 213 
Q 3469 63 3072 -14 
Q 2675 -91 2278 -91 
Q 1328 -91 801 392 
Q 275 875 275 1747 
Q 275 2603 792 3093 
Q 1309 3584 2216 3584 
Q 3041 3584 3536 3087 
Q 4031 2591 4031 1759 
z
M 2881 2131 
Q 2881 2450 2695 2645 
Q 2509 2841 2209 2841 
Q 1884 2841 1681 2658 
Q 1478 2475 1428 2131 
L 2881 2131 
z
" transform="scale(0.015625)"/>
      <path id="DejaVuSans-Bold-4f" d="M 538 4863 
L 1656 4863 
L 1656 0 
L 538 0 
L 538 4863 
z
" transform="scale(0.015625)"/>
      <path id="DejaVuSans-Bold-c" d="M 513 -844 
Q 913 -100 1113 609 
Q 1313 1319 1313 2009 
Q 1313 2700 1113 3408 
Q 913 4116 513 4856 
L 1441 4856 
Q 1916 4091 2145 3389 
Q 2375 2688 2375 2003 
Q 2375 1319 2147 623 
Q 1919 -72 1441 -844 
L 513 -844 
z
" transform="scale(0.015625)"/>
     </defs>
     <use xlink:href="#DejaVuSans-Bold-26"/>
     <use xlink:href="#DejaVuSans-Bold-26" transform="translate(73.390625 0)"/>
     <use xlink:href="#DejaVuSans-Bold-14" transform="translate(146.78125 0)"/>
     <use xlink:href="#DejaVuSans-Bold-3" transform="translate(216.359375 0)"/>
     <use xlink:href="#DejaVuSans-Bold-b" transform="translate(251.171875 0)"/>
     <use xlink:href="#DejaVuSans-Bold-33" transform="translate(296.875 0)"/>
     <use xlink:href="#DejaVuSans-Bold-26" transform="translate(370.171875 0)"/>
     <use xlink:href="#DejaVuSans-Bold-48" transform="translate(443.5625 0)"/>
     <use xlink:href="#DejaVuSans-Bold-4f" transform="translate(511.390625 0)"/>
     <use xlink:href="#DejaVuSans-Bold-4f" transform="translate(545.671875 0)"/>
     <use xlink:href="#DejaVuSans-Bold-c" transform="translate(579.953125 0)"/>
    </g>
   </g>
   <g id="text_3">
    <!-- CC2 (SCell) -->
    <g style="fill: #ffffff" transform="translate(306.489415 56.762457) scale(0.085 -0.085)">
     <defs>
      <path id="DejaVuSans-Bold-15" d="M 1844 884 
L 3897 884 
L 3897 0 
L 506 0 
L 506 884 
L 2209 2388 
Q 2438 2594 2547 2791 
Q 2656 2988 2656 3200 
Q 2656 3528 2436 3728 
Q 2216 3928 1850 3928 
Q 1569 3928 1234 3808 
Q 900 3688 519 3450 
L 519 4475 
Q 925 4609 1322 4679 
Q 1719 4750 2100 4750 
Q 2938 4750 3402 4381 
Q 3866 4013 3866 3353 
Q 3866 2972 3669 2642 
Q 3472 2313 2841 1759 
L 1844 884 
z
" transform="scale(0.015625)"/>
      <path id="DejaVuSans-Bold-36" d="M 3834 4519 
L 3834 3531 
Q 3450 3703 3084 3790 
Q 2719 3878 2394 3878 
Q 1963 3878 1756 3759 
Q 1550 3641 1550 3391 
Q 1550 3203 1689 3098 
Q 1828 2994 2194 2919 
L 2706 2816 
Q 3484 2659 3812 2340 
Q 4141 2022 4141 1434 
Q 4141 663 3683 286 
Q 3225 -91 2284 -91 
Q 1841 -91 1394 -6 
Q 947 78 500 244 
L 500 1259 
Q 947 1022 1364 901 
Q 1781 781 2169 781 
Q 2563 781 2772 912 
Q 2981 1044 2981 1288 
Q 2981 1506 2839 1625 
Q 2697 1744 2272 1838 
L 1806 1941 
Q 1106 2091 782 2419 
Q 459 2747 459 3303 
Q 459 4000 909 4375 
Q 1359 4750 2203 4750 
Q 2588 4750 2994 4692 
Q 3400 4634 3834 4519 
z
" transform="scale(0.015625)"/>
     </defs>
     <use xlink:href="#DejaVuSans-Bold-26"/>
     <use xlink:href="#DejaVuSans-Bold-26" transform="translate(73.390625 0)"/>
     <use xlink:href="#DejaVuSans-Bold-15" transform="translate(146.78125 0)"/>
     <use xlink:href="#DejaVuSans-Bold-3" transform="translate(216.359375 0)"/>
     <use xlink:href="#DejaVuSans-Bold-b" transform="translate(251.171875 0)"/>
     <use xlink:href="#DejaVuSans-Bold-36" transform="translate(296.875 0)"/>
     <use xlink:href="#DejaVuSans-Bold-26" transform="translate(368.890625 0)"/>
     <use xlink:href="#DejaVuSans-Bold-48" transform="translate(442.28125 0)"/>
     <use xlink:href="#DejaVuSans-Bold-4f" transform="translate(510.109375 0)"/>
     <use xlink:href="#DejaVuSans-Bold-4f" transform="translate(544.390625 0)"/>
     <use xlink:href="#DejaVuSans-Bold-c" transform="translate(578.671875 0)"/>
    </g>
   </g>
   <g id="text_4">
    <!-- Intra-band contiguous -->
    <g style="fill: #0b0b0b" transform="translate(44.871568 57.022262) scale(0.095 -0.095)">
     <defs>
      <path id="DejaVuSans-Bold-2c" d="M 588 4666 
L 1791 4666 
L 1791 0 
L 588 0 
L 588 4666 
z
" transform="scale(0.015625)"/>
      <path id="DejaVuSans-Bold-51" d="M 4056 2131 
L 4056 0 
L 2931 0 
L 2931 347 
L 2931 1631 
Q 2931 2084 2911 2256 
Q 2891 2428 2841 2509 
Q 2775 2619 2662 2680 
Q 2550 2741 2406 2741 
Q 2056 2741 1856 2470 
Q 1656 2200 1656 1722 
L 1656 0 
L 538 0 
L 538 3500 
L 1656 3500 
L 1656 2988 
Q 1909 3294 2193 3439 
Q 2478 3584 2822 3584 
Q 3428 3584 3742 3212 
Q 4056 2841 4056 2131 
z
" transform="scale(0.015625)"/>
      <path id="DejaVuSans-Bold-57" d="M 1759 4494 
L 1759 3500 
L 2913 3500 
L 2913 2700 
L 1759 2700 
L 1759 1216 
Q 1759 972 1856 886 
Q 1953 800 2241 800 
L 2816 800 
L 2816 0 
L 1856 0 
Q 1194 0 917 276 
Q 641 553 641 1216 
L 641 2700 
L 84 2700 
L 84 3500 
L 641 3500 
L 641 4494 
L 1759 4494 
z
" transform="scale(0.015625)"/>
      <path id="DejaVuSans-Bold-55" d="M 3138 2547 
Q 2991 2616 2845 2648 
Q 2700 2681 2553 2681 
Q 2122 2681 1889 2404 
Q 1656 2128 1656 1613 
L 1656 0 
L 538 0 
L 538 3500 
L 1656 3500 
L 1656 2925 
Q 1872 3269 2151 3426 
Q 2431 3584 2822 3584 
Q 2878 3584 2943 3579 
Q 3009 3575 3134 3559 
L 3138 2547 
z
" transform="scale(0.015625)"/>
      <path id="DejaVuSans-Bold-44" d="M 2106 1575 
Q 1756 1575 1579 1456 
Q 1403 1338 1403 1106 
Q 1403 894 1545 773 
Q 1688 653 1941 653 
Q 2256 653 2472 879 
Q 2688 1106 2688 1447 
L 2688 1575 
L 2106 1575 
z
M 3816 1997 
L 3816 0 
L 2688 0 
L 2688 519 
Q 2463 200 2181 54 
Q 1900 -91 1497 -91 
Q 953 -91 614 226 
Q 275 544 275 1050 
Q 275 1666 698 1953 
Q 1122 2241 2028 2241 
L 2688 2241 
L 2688 2328 
Q 2688 2594 2478 2717 
Q 2269 2841 1825 2841 
Q 1466 2841 1156 2769 
Q 847 2697 581 2553 
L 581 3406 
Q 941 3494 1303 3539 
Q 1666 3584 2028 3584 
Q 2975 3584 3395 3211 
Q 3816 2838 3816 1997 
z
" transform="scale(0.015625)"/>
      <path id="DejaVuSans-Bold-10" d="M 347 2297 
L 2309 2297 
L 2309 1388 
L 347 1388 
L 347 2297 
z
" transform="scale(0.015625)"/>
      <path id="DejaVuSans-Bold-45" d="M 2400 722 
Q 2759 722 2948 984 
Q 3138 1247 3138 1747 
Q 3138 2247 2948 2509 
Q 2759 2772 2400 2772 
Q 2041 2772 1848 2508 
Q 1656 2244 1656 1747 
Q 1656 1250 1848 986 
Q 2041 722 2400 722 
z
M 1656 2988 
Q 1888 3294 2169 3439 
Q 2450 3584 2816 3584 
Q 3463 3584 3878 3070 
Q 4294 2556 4294 1747 
Q 4294 938 3878 423 
Q 3463 -91 2816 -91 
Q 2450 -91 2169 54 
Q 1888 200 1656 506 
L 1656 0 
L 538 0 
L 538 4863 
L 1656 4863 
L 1656 2988 
z
" transform="scale(0.015625)"/>
      <path id="DejaVuSans-Bold-47" d="M 2919 2988 
L 2919 4863 
L 4044 4863 
L 4044 0 
L 2919 0 
L 2919 506 
Q 2688 197 2409 53 
Q 2131 -91 1766 -91 
Q 1119 -91 703 423 
Q 288 938 288 1747 
Q 288 2556 703 3070 
Q 1119 3584 1766 3584 
Q 2128 3584 2408 3439 
Q 2688 3294 2919 2988 
z
M 2181 722 
Q 2541 722 2730 984 
Q 2919 1247 2919 1747 
Q 2919 2247 2730 2509 
Q 2541 2772 2181 2772 
Q 1825 2772 1636 2509 
Q 1447 2247 1447 1747 
Q 1447 1247 1636 984 
Q 1825 722 2181 722 
z
" transform="scale(0.015625)"/>
      <path id="DejaVuSans-Bold-46" d="M 3366 3391 
L 3366 2478 
Q 3138 2634 2908 2709 
Q 2678 2784 2431 2784 
Q 1963 2784 1702 2511 
Q 1441 2238 1441 1747 
Q 1441 1256 1702 982 
Q 1963 709 2431 709 
Q 2694 709 2930 787 
Q 3166 866 3366 1019 
L 3366 103 
Q 3103 6 2833 -42 
Q 2563 -91 2291 -91 
Q 1344 -91 809 395 
Q 275 881 275 1747 
Q 275 2613 809 3098 
Q 1344 3584 2291 3584 
Q 2566 3584 2833 3536 
Q 3100 3488 3366 3391 
z
" transform="scale(0.015625)"/>
      <path id="DejaVuSans-Bold-52" d="M 2203 2784 
Q 1831 2784 1636 2517 
Q 1441 2250 1441 1747 
Q 1441 1244 1636 976 
Q 1831 709 2203 709 
Q 2569 709 2762 976 
Q 2956 1244 2956 1747 
Q 2956 2250 2762 2517 
Q 2569 2784 2203 2784 
z
M 2203 3584 
Q 3106 3584 3614 3096 
Q 4122 2609 4122 1747 
Q 4122 884 3614 396 
Q 3106 -91 2203 -91 
Q 1297 -91 786 396 
Q 275 884 275 1747 
Q 275 2609 786 3096 
Q 1297 3584 2203 3584 
z
" transform="scale(0.015625)"/>
      <path id="DejaVuSans-Bold-4c" d="M 538 3500 
L 1656 3500 
L 1656 0 
L 538 0 
L 538 3500 
z
M 538 4863 
L 1656 4863 
L 1656 3950 
L 538 3950 
L 538 4863 
z
" transform="scale(0.015625)"/>
      <path id="DejaVuSans-Bold-4a" d="M 2919 594 
Q 2688 288 2409 144 
Q 2131 0 1766 0 
Q 1125 0 706 504 
Q 288 1009 288 1791 
Q 288 2575 706 3076 
Q 1125 3578 1766 3578 
Q 2131 3578 2409 3434 
Q 2688 3291 2919 2981 
L 2919 3500 
L 4044 3500 
L 4044 353 
Q 4044 -491 3511 -936 
Q 2978 -1381 1966 -1381 
Q 1638 -1381 1331 -1331 
Q 1025 -1281 716 -1178 
L 716 -306 
Q 1009 -475 1290 -558 
Q 1572 -641 1856 -641 
Q 2406 -641 2662 -400 
Q 2919 -159 2919 353 
L 2919 594 
z
M 2181 2772 
Q 1834 2772 1640 2515 
Q 1447 2259 1447 1791 
Q 1447 1309 1634 1061 
Q 1822 813 2181 813 
Q 2531 813 2725 1069 
Q 2919 1325 2919 1791 
Q 2919 2259 2725 2515 
Q 2531 2772 2181 2772 
z
" transform="scale(0.015625)"/>
      <path id="DejaVuSans-Bold-58" d="M 500 1363 
L 500 3500 
L 1625 3500 
L 1625 3150 
Q 1625 2866 1622 2436 
Q 1619 2006 1619 1863 
Q 1619 1441 1641 1255 
Q 1663 1069 1716 984 
Q 1784 875 1895 815 
Q 2006 756 2150 756 
Q 2500 756 2700 1025 
Q 2900 1294 2900 1772 
L 2900 3500 
L 4019 3500 
L 4019 0 
L 2900 0 
L 2900 506 
Q 2647 200 2364 54 
Q 2081 -91 1741 -91 
Q 1134 -91 817 281 
Q 500 653 500 1363 
z
" transform="scale(0.015625)"/>
      <path id="DejaVuSans-Bold-56" d="M 3272 3391 
L 3272 2541 
Q 2913 2691 2578 2766 
Q 2244 2841 1947 2841 
Q 1628 2841 1473 2761 
Q 1319 2681 1319 2516 
Q 1319 2381 1436 2309 
Q 1553 2238 1856 2203 
L 2053 2175 
Q 2913 2066 3209 1816 
Q 3506 1566 3506 1031 
Q 3506 472 3093 190 
Q 2681 -91 1863 -91 
Q 1516 -91 1145 -36 
Q 775 19 384 128 
L 384 978 
Q 719 816 1070 734 
Q 1422 653 1784 653 
Q 2113 653 2278 743 
Q 2444 834 2444 1013 
Q 2444 1163 2330 1236 
Q 2216 1309 1875 1350 
L 1678 1375 
Q 931 1469 631 1722 
Q 331 1975 331 2491 
Q 331 3047 712 3315 
Q 1094 3584 1881 3584 
Q 2191 3584 2531 3537 
Q 2872 3491 3272 3391 
z
" transform="scale(0.015625)"/>
     </defs>
     <use xlink:href="#DejaVuSans-Bold-2c"/>
     <use xlink:href="#DejaVuSans-Bold-51" transform="translate(37.203125 0)"/>
     <use xlink:href="#DejaVuSans-Bold-57" transform="translate(108.390625 0)"/>
     <use xlink:href="#DejaVuSans-Bold-55" transform="translate(156.1875 0)"/>
     <use xlink:href="#DejaVuSans-Bold-44" transform="translate(205.5 0)"/>
     <use xlink:href="#DejaVuSans-Bold-10" transform="translate(272.984375 0)"/>
     <use xlink:href="#DejaVuSans-Bold-45" transform="translate(314.484375 0)"/>
     <use xlink:href="#DejaVuSans-Bold-44" transform="translate(386.0625 0)"/>
     <use xlink:href="#DejaVuSans-Bold-51" transform="translate(453.546875 0)"/>
     <use xlink:href="#DejaVuSans-Bold-47" transform="translate(524.734375 0)"/>
     <use xlink:href="#DejaVuSans-Bold-3" transform="translate(596.3125 0)"/>
     <use xlink:href="#DejaVuSans-Bold-46" transform="translate(631.125 0)"/>
     <use xlink:href="#DejaVuSans-Bold-52" transform="translate(690.40625 0)"/>
     <use xlink:href="#DejaVuSans-Bold-51" transform="translate(759.109375 0)"/>
     <use xlink:href="#DejaVuSans-Bold-57" transform="translate(830.296875 0)"/>
     <use xlink:href="#DejaVuSans-Bold-4c" transform="translate(878.09375 0)"/>
     <use xlink:href="#DejaVuSans-Bold-4a" transform="translate(912.375 0)"/>
     <use xlink:href="#DejaVuSans-Bold-58" transform="translate(983.953125 0)"/>
     <use xlink:href="#DejaVuSans-Bold-52" transform="translate(1055.140625 0)"/>
     <use xlink:href="#DejaVuSans-Bold-58" transform="translate(1123.84375 0)"/>
     <use xlink:href="#DejaVuSans-Bold-56" transform="translate(1195.03125 0)"/>
    </g>
   </g>
  </g>
  <g id="axes_2">
   <g id="patch_5">
    <path d="M 195.490141 167.481412 
L 399.828169 167.481412 
L 399.828169 121.643765 
L 195.490141 121.643765 
z
" clip-path="url(#pda01a94390)" style="fill: #f4f3f0; stroke: #d9d8d4; stroke-linejoin: miter"/>
   </g>
   <g id="patch_6">
    <path d="M 207.278873 163.314353 
L 270.152113 163.314353 
L 270.152113 125.810824 
L 207.278873 125.810824 
z
" clip-path="url(#pda01a94390)" style="fill: #2a78d6; stroke: #ffffff; stroke-width: 1.5; stroke-linejoin: miter"/>
   </g>
   <g id="patch_7">
    <path d="M 333.025352 163.314353 
L 395.898592 163.314353 
L 395.898592 125.810824 
L 333.025352 125.810824 
z
" clip-path="url(#pda01a94390)" style="fill: #1baf7a; stroke: #ffffff; stroke-width: 1.5; stroke-linejoin: miter"/>
   </g>
   <g id="text_5">
    <!-- Band A -->
    <g style="fill: #52514e" transform="translate(282.489311 115.393176) scale(0.085 -0.085)">
     <use xlink:href="#DejaVuSans-25"/>
     <use xlink:href="#DejaVuSans-44" transform="translate(68.609375 0)"/>
     <use xlink:href="#DejaVuSans-51" transform="translate(129.890625 0)"/>
     <use xlink:href="#DejaVuSans-47" transform="translate(193.265625 0)"/>
     <use xlink:href="#DejaVuSans-3" transform="translate(256.75 0)"/>
     <use xlink:href="#DejaVuSans-24" transform="translate(288.53125 0)"/>
    </g>
   </g>
   <g id="text_6">
    <!-- CC1 (PCell) -->
    <g style="fill: #ffffff" transform="translate(212.125102 146.770928) scale(0.085 -0.085)">
     <use xlink:href="#DejaVuSans-Bold-26"/>
     <use xlink:href="#DejaVuSans-Bold-26" transform="translate(73.390625 0)"/>
     <use xlink:href="#DejaVuSans-Bold-14" transform="translate(146.78125 0)"/>
     <use xlink:href="#DejaVuSans-Bold-3" transform="translate(216.359375 0)"/>
     <use xlink:href="#DejaVuSans-Bold-b" transform="translate(251.171875 0)"/>
     <use xlink:href="#DejaVuSans-Bold-33" transform="translate(296.875 0)"/>
     <use xlink:href="#DejaVuSans-Bold-26" transform="translate(370.171875 0)"/>
     <use xlink:href="#DejaVuSans-Bold-48" transform="translate(443.5625 0)"/>
     <use xlink:href="#DejaVuSans-Bold-4f" transform="translate(511.390625 0)"/>
     <use xlink:href="#DejaVuSans-Bold-4f" transform="translate(545.671875 0)"/>
     <use xlink:href="#DejaVuSans-Bold-c" transform="translate(579.953125 0)"/>
    </g>
   </g>
   <g id="text_7">
    <!-- CC2 (SCell) -->
    <g style="fill: #ffffff" transform="translate(337.926034 146.770928) scale(0.085 -0.085)">
     <use xlink:href="#DejaVuSans-Bold-26"/>
     <use xlink:href="#DejaVuSans-Bold-26" transform="translate(73.390625 0)"/>
     <use xlink:href="#DejaVuSans-Bold-15" transform="translate(146.78125 0)"/>
     <use xlink:href="#DejaVuSans-Bold-3" transform="translate(216.359375 0)"/>
     <use xlink:href="#DejaVuSans-Bold-b" transform="translate(251.171875 0)"/>
     <use xlink:href="#DejaVuSans-Bold-36" transform="translate(296.875 0)"/>
     <use xlink:href="#DejaVuSans-Bold-26" transform="translate(368.890625 0)"/>
     <use xlink:href="#DejaVuSans-Bold-48" transform="translate(442.28125 0)"/>
     <use xlink:href="#DejaVuSans-Bold-4f" transform="translate(510.109375 0)"/>
     <use xlink:href="#DejaVuSans-Bold-4f" transform="translate(544.390625 0)"/>
     <use xlink:href="#DejaVuSans-Bold-c" transform="translate(578.671875 0)"/>
    </g>
   </g>
   <g id="text_8">
    <!-- Intra-band non-contiguous -->
    <g style="fill: #0b0b0b" transform="translate(20.876646 147.030733) scale(0.095 -0.095)">
     <use xlink:href="#DejaVuSans-Bold-2c"/>
     <use xlink:href="#DejaVuSans-Bold-51" transform="translate(37.203125 0)"/>
     <use xlink:href="#DejaVuSans-Bold-57" transform="translate(108.390625 0)"/>
     <use xlink:href="#DejaVuSans-Bold-55" transform="translate(156.1875 0)"/>
     <use xlink:href="#DejaVuSans-Bold-44" transform="translate(205.5 0)"/>
     <use xlink:href="#DejaVuSans-Bold-10" transform="translate(272.984375 0)"/>
     <use xlink:href="#DejaVuSans-Bold-45" transform="translate(314.484375 0)"/>
     <use xlink:href="#DejaVuSans-Bold-44" transform="translate(386.0625 0)"/>
     <use xlink:href="#DejaVuSans-Bold-51" transform="translate(453.546875 0)"/>
     <use xlink:href="#DejaVuSans-Bold-47" transform="translate(524.734375 0)"/>
     <use xlink:href="#DejaVuSans-Bold-3" transform="translate(596.3125 0)"/>
     <use xlink:href="#DejaVuSans-Bold-51" transform="translate(631.125 0)"/>
     <use xlink:href="#DejaVuSans-Bold-52" transform="translate(702.3125 0)"/>
     <use xlink:href="#DejaVuSans-Bold-51" transform="translate(771.015625 0)"/>
     <use xlink:href="#DejaVuSans-Bold-10" transform="translate(842.203125 0)"/>
     <use xlink:href="#DejaVuSans-Bold-46" transform="translate(883.703125 0)"/>
     <use xlink:href="#DejaVuSans-Bold-52" transform="translate(942.984375 0)"/>
     <use xlink:href="#DejaVuSans-Bold-51" transform="translate(1011.6875 0)"/>
     <use xlink:href="#DejaVuSans-Bold-57" transform="translate(1082.875 0)"/>
     <use xlink:href="#DejaVuSans-Bold-4c" transform="translate(1130.671875 0)"/>
     <use xlink:href="#DejaVuSans-Bold-4a" transform="translate(1164.953125 0)"/>
     <use xlink:href="#DejaVuSans-Bold-58" transform="translate(1236.53125 0)"/>
     <use xlink:href="#DejaVuSans-Bold-52" transform="translate(1307.71875 0)"/>
     <use xlink:href="#DejaVuSans-Bold-58" transform="translate(1376.421875 0)"/>
     <use xlink:href="#DejaVuSans-Bold-56" transform="translate(1447.609375 0)"/>
    </g>
   </g>
  </g>
  <g id="axes_3">
   <g id="patch_8">
    <path d="M 195.490141 257.489882 
L 289.8 257.489882 
L 289.8 211.652235 
L 195.490141 211.652235 
z
" clip-path="url(#pe80e8c4fe8)" style="fill: #f4f3f0; stroke: #d9d8d4; stroke-linejoin: miter"/>
   </g>
   <g id="patch_9">
    <path d="M 454.842254 257.489882 
L 549.152113 257.489882 
L 549.152113 211.652235 
L 454.842254 211.652235 
z
" clip-path="url(#pe80e8c4fe8)" style="fill: #f4f3f0; stroke: #d9d8d4; stroke-linejoin: miter"/>
   </g>
   <g id="patch_10">
    <path d="M 207.278873 253.322824 
L 278.011268 253.322824 
L 278.011268 215.819294 
L 207.278873 215.819294 
z
" clip-path="url(#pe80e8c4fe8)" style="fill: #2a78d6; stroke: #ffffff; stroke-width: 1.5; stroke-linejoin: miter"/>
   </g>
   <g id="patch_11">
    <path d="M 466.630986 253.322824 
L 537.36338 253.322824 
L 537.36338 215.819294 
L 466.630986 215.819294 
z
" clip-path="url(#pe80e8c4fe8)" style="fill: #1baf7a; stroke: #ffffff; stroke-width: 1.5; stroke-linejoin: miter"/>
   </g>
   <g id="text_9">
    <!-- Band A -->
    <g style="fill: #52514e" transform="translate(227.475227 205.401647) scale(0.085 -0.085)">
     <use xlink:href="#DejaVuSans-25"/>
     <use xlink:href="#DejaVuSans-44" transform="translate(68.609375 0)"/>
     <use xlink:href="#DejaVuSans-51" transform="translate(129.890625 0)"/>
     <use xlink:href="#DejaVuSans-47" transform="translate(193.265625 0)"/>
     <use xlink:href="#DejaVuSans-3" transform="translate(256.75 0)"/>
     <use xlink:href="#DejaVuSans-24" transform="translate(288.53125 0)"/>
    </g>
   </g>
   <g id="text_10">
    <!-- Band B -->
    <g style="fill: #52514e" transform="translate(486.818707 205.401647) scale(0.085 -0.085)">
     <use xlink:href="#DejaVuSans-25"/>
     <use xlink:href="#DejaVuSans-44" transform="translate(68.609375 0)"/>
     <use xlink:href="#DejaVuSans-51" transform="translate(129.890625 0)"/>
     <use xlink:href="#DejaVuSans-47" transform="translate(193.265625 0)"/>
     <use xlink:href="#DejaVuSans-3" transform="translate(256.75 0)"/>
     <use xlink:href="#DejaVuSans-25" transform="translate(288.53125 0)"/>
    </g>
   </g>
   <g id="text_11">
    <!-- CC1 (PCell) -->
    <g style="fill: #ffffff" transform="translate(216.05468 236.779399) scale(0.085 -0.085)">
     <use xlink:href="#DejaVuSans-Bold-26"/>
     <use xlink:href="#DejaVuSans-Bold-26" transform="translate(73.390625 0)"/>
     <use xlink:href="#DejaVuSans-Bold-14" transform="translate(146.78125 0)"/>
     <use xlink:href="#DejaVuSans-Bold-3" transform="translate(216.359375 0)"/>
     <use xlink:href="#DejaVuSans-Bold-b" transform="translate(251.171875 0)"/>
     <use xlink:href="#DejaVuSans-Bold-33" transform="translate(296.875 0)"/>
     <use xlink:href="#DejaVuSans-Bold-26" transform="translate(370.171875 0)"/>
     <use xlink:href="#DejaVuSans-Bold-48" transform="translate(443.5625 0)"/>
     <use xlink:href="#DejaVuSans-Bold-4f" transform="translate(511.390625 0)"/>
     <use xlink:href="#DejaVuSans-Bold-4f" transform="translate(545.671875 0)"/>
     <use xlink:href="#DejaVuSans-Bold-c" transform="translate(579.953125 0)"/>
    </g>
   </g>
   <g id="text_12">
    <!-- CC2 (SCell) -->
    <g style="fill: #ffffff" transform="translate(475.461246 236.779399) scale(0.085 -0.085)">
     <use xlink:href="#DejaVuSans-Bold-26"/>
     <use xlink:href="#DejaVuSans-Bold-26" transform="translate(73.390625 0)"/>
     <use xlink:href="#DejaVuSans-Bold-15" transform="translate(146.78125 0)"/>
     <use xlink:href="#DejaVuSans-Bold-3" transform="translate(216.359375 0)"/>
     <use xlink:href="#DejaVuSans-Bold-b" transform="translate(251.171875 0)"/>
     <use xlink:href="#DejaVuSans-Bold-36" transform="translate(296.875 0)"/>
     <use xlink:href="#DejaVuSans-Bold-26" transform="translate(368.890625 0)"/>
     <use xlink:href="#DejaVuSans-Bold-48" transform="translate(442.28125 0)"/>
     <use xlink:href="#DejaVuSans-Bold-4f" transform="translate(510.109375 0)"/>
     <use xlink:href="#DejaVuSans-Bold-4f" transform="translate(544.390625 0)"/>
     <use xlink:href="#DejaVuSans-Bold-c" transform="translate(578.671875 0)"/>
    </g>
   </g>
   <g id="text_13">
    <!-- Inter-band -->
    <g style="fill: #0b0b0b" transform="translate(107.371177 237.039203) scale(0.095 -0.095)">
     <use xlink:href="#DejaVuSans-Bold-2c"/>
     <use xlink:href="#DejaVuSans-Bold-51" transform="translate(37.203125 0)"/>
     <use xlink:href="#DejaVuSans-Bold-57" transform="translate(108.390625 0)"/>
     <use xlink:href="#DejaVuSans-Bold-48" transform="translate(156.1875 0)"/>
     <use xlink:href="#DejaVuSans-Bold-55" transform="translate(224.015625 0)"/>
     <use xlink:href="#DejaVuSans-Bold-10" transform="translate(273.328125 0)"/>
     <use xlink:href="#DejaVuSans-Bold-45" transform="translate(314.828125 0)"/>
     <use xlink:href="#DejaVuSans-Bold-44" transform="translate(386.40625 0)"/>
     <use xlink:href="#DejaVuSans-Bold-51" transform="translate(453.890625 0)"/>
     <use xlink:href="#DejaVuSans-Bold-47" transform="translate(525.078125 0)"/>
    </g>
   </g>
   <g id="patch_12">
    <path d="M 197.492375 263.740471 
Q 382.144774 263.740471 565.679139 263.740471 
" style="fill: none; stroke: #52514e; stroke-linecap: round"/>
    <path d="M 561.679139 261.740471 
L 565.679139 263.740471 
L 561.679139 265.740471 
" style="fill: none; stroke: #52514e; stroke-linecap: round"/>
   </g>
   <g id="text_14">
    <!-- frequency -->
    <g style="fill: #52514e" transform="translate(526.165859 259.573412) scale(0.085 -0.085)">
     <defs>
      <path id="DejaVuSans-49" d="M 2375 4863 
L 2375 4384 
L 1825 4384 
Q 1516 4384 1395 4259 
Q 1275 4134 1275 3809 
L 1275 3500 
L 2222 3500 
L 2222 3053 
L 1275 3053 
L 1275 0 
L 697 0 
L 697 3053 
L 147 3053 
L 147 3500 
L 697 3500 
L 697 3744 
Q 697 4328 969 4595 
Q 1241 4863 1831 4863 
L 2375 4863 
z
" transform="scale(0.015625)"/>
      <path id="DejaVuSans-55" d="M 2631 2963 
Q 2534 3019 2420 3045 
Q 2306 3072 2169 3072 
Q 1681 3072 1420 2755 
Q 1159 2438 1159 1844 
L 1159 0 
L 581 0 
L 581 3500 
L 1159 3500 
L 1159 2956 
Q 1341 3275 1631 3429 
Q 1922 3584 2338 3584 
Q 2397 3584 2469 3576 
Q 2541 3569 2628 3553 
L 2631 2963 
z
" transform="scale(0.015625)"/>
      <path id="DejaVuSans-48" d="M 3597 1894 
L 3597 1613 
L 953 1613 
Q 991 1019 1311 708 
Q 1631 397 2203 397 
Q 2534 397 2845 478 
Q 3156 559 3463 722 
L 3463 178 
Q 3153 47 2828 -22 
Q 2503 -91 2169 -91 
Q 1331 -91 842 396 
Q 353 884 353 1716 
Q 353 2575 817 3079 
Q 1281 3584 2069 3584 
Q 2775 3584 3186 3129 
Q 3597 2675 3597 1894 
z
M 3022 2063 
Q 3016 2534 2758 2815 
Q 2500 3097 2075 3097 
Q 1594 3097 1305 2825 
Q 1016 2553 972 2059 
L 3022 2063 
z
" transform="scale(0.015625)"/>
      <path id="DejaVuSans-54" d="M 947 1747 
Q 947 1113 1208 752 
Q 1469 391 1925 391 
Q 2381 391 2643 752 
Q 2906 1113 2906 1747 
Q 2906 2381 2643 2742 
Q 2381 3103 1925 3103 
Q 1469 3103 1208 2742 
Q 947 2381 947 1747 
z
M 2906 525 
Q 2725 213 2448 61 
Q 2172 -91 1784 -91 
Q 1150 -91 751 415 
Q 353 922 353 1747 
Q 353 2572 751 3078 
Q 1150 3584 1784 3584 
Q 2172 3584 2448 3432 
Q 2725 3281 2906 2969 
L 2906 3500 
L 3481 3500 
L 3481 -1331 
L 2906 -1331 
L 2906 525 
z
" transform="scale(0.015625)"/>
      <path id="DejaVuSans-58" d="M 544 1381 
L 544 3500 
L 1119 3500 
L 1119 1403 
Q 1119 906 1312 657 
Q 1506 409 1894 409 
Q 2359 409 2629 706 
Q 2900 1003 2900 1516 
L 2900 3500 
L 3475 3500 
L 3475 0 
L 2900 0 
L 2900 538 
Q 2691 219 2414 64 
Q 2138 -91 1772 -91 
Q 1169 -91 856 284 
Q 544 659 544 1381 
z
M 1991 3584 
L 1991 3584 
z
" transform="scale(0.015625)"/>
      <path id="DejaVuSans-46" d="M 3122 3366 
L 3122 2828 
Q 2878 2963 2633 3030 
Q 2388 3097 2138 3097 
Q 1578 3097 1268 2742 
Q 959 2388 959 1747 
Q 959 1106 1268 751 
Q 1578 397 2138 397 
Q 2388 397 2633 464 
Q 2878 531 3122 666 
L 3122 134 
Q 2881 22 2623 -34 
Q 2366 -91 2075 -91 
Q 1284 -91 818 406 
Q 353 903 353 1747 
Q 353 2603 823 3093 
Q 1294 3584 2113 3584 
Q 2378 3584 2631 3529 
Q 2884 3475 3122 3366 
z
" transform="scale(0.015625)"/>
      <path id="DejaVuSans-5c" d="M 2059 -325 
Q 1816 -950 1584 -1140 
Q 1353 -1331 966 -1331 
L 506 -1331 
L 506 -850 
L 844 -850 
Q 1081 -850 1212 -737 
Q 1344 -625 1503 -206 
L 1606 56 
L 191 3500 
L 800 3500 
L 1894 763 
L 2988 3500 
L 3597 3500 
L 2059 -325 
z
" transform="scale(0.015625)"/>
     </defs>
     <use xlink:href="#DejaVuSans-49"/>
     <use xlink:href="#DejaVuSans-55" transform="translate(35.203125 0)"/>
     <use xlink:href="#DejaVuSans-48" transform="translate(74.109375 0)"/>
     <use xlink:href="#DejaVuSans-54" transform="translate(135.640625 0)"/>
     <use xlink:href="#DejaVuSans-58" transform="translate(199.125 0)"/>
     <use xlink:href="#DejaVuSans-48" transform="translate(262.5 0)"/>
     <use xlink:href="#DejaVuSans-51" transform="translate(324.03125 0)"/>
     <use xlink:href="#DejaVuSans-46" transform="translate(387.40625 0)"/>
     <use xlink:href="#DejaVuSans-5c" transform="translate(442.390625 0)"/>
    </g>
   </g>
  </g>
 </g>
 <defs>
  <clipPath id="p0268a25ce3">
   <rect x="10.8" y="10.8" width="558" height="75.007059"/>
  </clipPath>
  <clipPath id="pda01a94390">
   <rect x="10.8" y="100.808471" width="558" height="75.007059"/>
  </clipPath>
  <clipPath id="pe80e8c4fe8">
   <rect x="10.8" y="190.816941" width="558" height="75.007059"/>
  </clipPath>
 </defs>
</svg>
