<?xml version="1.0" encoding="utf-8" standalone="no"?>
<!DOCTYPE svg PUBLIC "-//W3C//DTD SVG 1.1//EN"
  "http://www.w3.org/Graphics/SVG/1.1/DTD/svg11.dtd">
<svg xmlns:xlink="http://www.w3.org/1999/xlink" width="709.526685pt" height="287.712pt" viewBox="0 0 709.526685 287.712" xmlns="http://www.w3.org/2000/svg" version="1.1">
 <metadata>
  <rdf:RDF xmlns:dc="http://purl.org/dc/elements/1.1/" xmlns:cc="http://creativecommons.org/ns#" xmlns:rdf="http://www.w3.org/1999/02/22-rdf-syntax-ns#">
   <cc:Work>
    <dc:type rdf:resource="http://purl.org/dc/dcmitype/StillImage"/>
    <dc:date>2026-10-09T14:51:00.713458</dc:date>
    <dc:format>image/svg+xml</dc:format>
    <dc:creator>
     <cc:Agent>
      <dc:title>Matplotlib v3.11.2, https://matplotlib.org/</dc:title>
     </cc:Agent>
    </dc:creator>
   </cc:Work>
  </rdf:RDF>
 </metadata>
 <defs>
  <style type="text/css">*{stroke-linejoin: round; stroke-linecap: butt}</style>
 </defs>
 <g id="figure_1">
  <g id="patch_1">
   <path d="M 0 287.712 
L 709.526685 287.712 
L 709.526685 0 
L 0 0 
z
" style="fill: #ffffff"/>
  </g>
  <g id="axes_1">
   <g id="patch_2">
    <path d="M 97.612232 50.7168 
L 462.969375 50.7168 
L 462.969375 23.21856 
L 97.612232 23.21856 
z
" clip-path="url(#p08f2e0bda3)" style="fill: #2a78d6; stroke: #ffffff; stroke-linejoin: miter"/>
   </g>
   <g id="patch_3">
    <path d="M 97.612232 95.0688 
L 280.290804 95.0688 
L 280.290804 67.57056 
L 97.612232 67.57056 
z
" clip-path="url(#p08f2e0bda3)" style="fill: #2a78d6; stroke: #ffffff; stroke-linejoin: miter"/>
   </g>
   <g id="patch_4">
    <path d="M 280.290804 95.0688 
L 462.969375 95.0688 
L 462.969375 67.57056 
L 280.290804 67.57056 
z
" clip-path="url(#p08f2e0bda3)" style="fill: #2a78d6; stroke: #ffffff; stroke-linejoin: miter"/>
   </g>
   <g id="patch_5">
    <path d="M 97.612232 139.4208 
L 188.951518 139.4208 
L 188.951518 111.92256 
L 97.612232 111.92256 
z
" clip-path="url(#p08f2e0bda3)" style="fill: #2a78d6; stroke: #ffffff; stroke-linejoin: miter"/>
   </g>
   <g id="patch_6">
    <path d="M 188.951518 139.4208 
L 280.290804 139.4208 
L 280.290804 111.92256 
L 188.951518 111.92256 
z
" clip-path="url(#p08f2e0bda3)" style="fill: #2a78d6; stroke: #ffffff; stroke-linejoin: miter"/>
   </g>
   <g id="patch_7">
    <path d="M 280.290804 139.4208 
L 371.630089 139.4208 
L 371.630089 111.92256 
L 280.290804 111.92256 
z
" clip-path="url(#p08f2e0bda3)" style="fill: #2a78d6; stroke: #ffffff; stroke-linejoin: miter"/>
   </g>
   <g id="patch_8">
    <path d="M 371.630089 139.4208 
L 462.969375 139.4208 
L 462.969375 111.92256 
L 371.630089 111.92256 
z
" clip-path="url(#p08f2e0bda3)" style="fill: #2a78d6; stroke: #ffffff; stroke-linejoin: miter"/>
   </g>
   <g id="patch_9">
    <path d="M 97.612232 183.7728 
L 143.281875 183.7728 
L 143.281875 156.27456 
L 97.612232 156.27456 
z
" clip-path="url(#p08f2e0bda3)" style="fill: #2a78d6; stroke: #ffffff; stroke-linejoin: miter"/>
   </g>
   <g id="patch_10">
    <path d="M 143.281875 183.7728 
L 188.951518 183.7728 
L 188.951518 156.27456 
L 143.281875 156.27456 
z
" clip-path="url(#p08f2e0bda3)" style="fill: #2a78d6; stroke: #ffffff; stroke-linejoin: miter"/>
   </g>
   <g id="patch_11">
    <path d="M 188.951518 183.7728 
L 234.621161 183.7728 
L 234.621161 156.27456 
L 188.951518 156.27456 
z
" clip-path="url(#p08f2e0bda3)" style="fill: #2a78d6; stroke: #ffffff; stroke-linejoin: miter"/>
   </g>
   <g id="patch_12">
    <path d="M 234.621161 183.7728 
L 280.290804 183.7728 
L 280.290804 156.27456 
L 234.621161 156.27456 
z
" clip-path="url(#p08f2e0bda3)" style="fill: #2a78d6; stroke: #ffffff; stroke-linejoin: miter"/>
   </g>
   <g id="patch_13">
    <path d="M 280.290804 183.7728 
L 325.960446 183.7728 
L 325.960446 156.27456 
L 280.290804 156.27456 
z
" clip-path="url(#p08f2e0bda3)" style="fill: #2a78d6; stroke: #ffffff; stroke-linejoin: miter"/>
   </g>
   <g id="patch_14">
    <path d="M 325.960446 183.7728 
L 371.630089 183.7728 
L 371.630089 156.27456 
L 325.960446 156.27456 
z
" clip-path="url(#p08f2e0bda3)" style="fill: #2a78d6; stroke: #ffffff; stroke-linejoin: miter"/>
   </g>
   <g id="patch_15">
    <path d="M 371.630089 183.7728 
L 417.299732 183.7728 
L 417.299732 156.27456 
L 371.630089 156.27456 
z
" clip-path="url(#p08f2e0bda3)" style="fill: #2a78d6; stroke: #ffffff; stroke-linejoin: miter"/>
   </g>
   <g id="patch_16">
    <path d="M 417.299732 183.7728 
L 462.969375 183.7728 
L 462.969375 156.27456 
L 417.299732 156.27456 
z
" clip-path="url(#p08f2e0bda3)" style="fill: #2a78d6; stroke: #ffffff; stroke-linejoin: miter"/>
   </g>
   <g id="patch_17">
    <path d="M 97.612232 228.1248 
L 120.447054 228.1248 
L 120.447054 200.62656 
L 97.612232 200.62656 
z
" clip-path="url(#p08f2e0bda3)" style="fill: #2a78d6; stroke: #ffffff; stroke-linejoin: miter"/>
   </g>
   <g id="patch_18">
    <path d="M 120.447054 228.1248 
L 143.281875 228.1248 
L 143.281875 200.62656 
L 120.447054 200.62656 
z
" clip-path="url(#p08f2e0bda3)" style="fill: #2a78d6; stroke: #ffffff; stroke-linejoin: miter"/>
   </g>
   <g id="patch_19">
    <path d="M 143.281875 228.1248 
L 166.116696 228.1248 
L 166.116696 200.62656 
L 143.281875 200.62656 
z
" clip-path="url(#p08f2e0bda3)" style="fill: #2a78d6; stroke: #ffffff; stroke-linejoin: miter"/>
   </g>
   <g id="patch_20">
    <path d="M 166.116696 228.1248 
L 188.951518 228.1248 
L 188.951518 200.62656 
L 166.116696 200.62656 
z
" clip-path="url(#p08f2e0bda3)" style="fill: #2a78d6; stroke: #ffffff; stroke-linejoin: miter"/>
   </g>
   <g id="patch_21">
    <path d="M 188.951518 228.1248 
L 211.786339 228.1248 
L 211.786339 200.62656 
L 188.951518 200.62656 
z
" clip-path="url(#p08f2e0bda3)" style="fill: #2a78d6; stroke: #ffffff; stroke-linejoin: miter"/>
   </g>
   <g id="patch_22">
    <path d="M 211.786339 228.1248 
L 234.621161 228.1248 
L 234.621161 200.62656 
L 211.786339 200.62656 
z
" clip-path="url(#p08f2e0bda3)" style="fill: #2a78d6; stroke: #ffffff; stroke-linejoin: miter"/>
   </g>
   <g id="patch_23">
    <path d="M 234.621161 228.1248 
L 257.455982 228.1248 
L 257.455982 200.62656 
L 234.621161 200.62656 
z
" clip-path="url(#p08f2e0bda3)" style="fill: #2a78d6; stroke: #ffffff; stroke-linejoin: miter"/>
   </g>
   <g id="patch_24">
    <path d="M 257.455982 228.1248 
L 280.290804 228.1248 
L 280.290804 200.62656 
L 257.455982 200.62656 
z
" clip-path="url(#p08f2e0bda3)" style="fill: #2a78d6; stroke: #ffffff; stroke-linejoin: miter"/>
   </g>
   <g id="patch_25">
    <path d="M 280.290804 228.1248 
L 303.125625 228.1248 
L 303.125625 200.62656 
L 280.290804 200.62656 
z
" clip-path="url(#p08f2e0bda3)" style="fill: #2a78d6; stroke: #ffffff; stroke-linejoin: miter"/>
   </g>
   <g id="patch_26">
    <path d="M 303.125625 228.1248 
L 325.960446 228.1248 
L 325.960446 200.62656 
L 303.125625 200.62656 
z
" clip-path="url(#p08f2e0bda3)" style="fill: #2a78d6; stroke: #ffffff; stroke-linejoin: miter"/>
   </g>
   <g id="patch_27">
    <path d="M 325.960446 228.1248 
L 348.795268 228.1248 
L 348.795268 200.62656 
L 325.960446 200.62656 
z
" clip-path="url(#p08f2e0bda3)" style="fill: #2a78d6; stroke: #ffffff; stroke-linejoin: miter"/>
   </g>
   <g id="patch_28">
    <path d="M 348.795268 228.1248 
L 371.630089 228.1248 
L 371.630089 200.62656 
L 348.795268 200.62656 
z
" clip-path="url(#p08f2e0bda3)" style="fill: #2a78d6; stroke: #ffffff; stroke-linejoin: miter"/>
   </g>
   <g id="patch_29">
    <path d="M 371.630089 228.1248 
L 394.464911 228.1248 
L 394.464911 200.62656 
L 371.630089 200.62656 
z
" clip-path="url(#p08f2e0bda3)" style="fill: #2a78d6; stroke: #ffffff; stroke-linejoin: miter"/>
   </g>
   <g id="patch_30">
    <path d="M 394.464911 228.1248 
L 417.299732 228.1248 
L 417.299732 200.62656 
L 394.464911 200.62656 
z
" clip-path="url(#p08f2e0bda3)" style="fill: #2a78d6; stroke: #ffffff; stroke-linejoin: miter"/>
   </g>
   <g id="patch_31">
    <path d="M 417.299732 228.1248 
L 440.134554 228.1248 
L 440.134554 200.62656 
L 417.299732 200.62656 
z
" clip-path="url(#p08f2e0bda3)" style="fill: #2a78d6; stroke: #ffffff; stroke-linejoin: miter"/>
   </g>
   <g id="patch_32">
    <path d="M 440.134554 228.1248 
L 462.969375 228.1248 
L 462.969375 200.62656 
L 440.134554 200.62656 
z
" clip-path="url(#p08f2e0bda3)" style="fill: #2a78d6; stroke: #ffffff; stroke-linejoin: miter"/>
   </g>
   <g id="line2d_1">
    <path d="M 97.612232 234.7776 
L 97.612232 230.3424 
" clip-path="url(#p08f2e0bda3)" style="fill: none; stroke: #52514e; stroke-width: 0.8; stroke-linecap: square"/>
   </g>
   <g id="line2d_2">
    <path d="M 134.147946 234.7776 
L 134.147946 230.3424 
" clip-path="url(#p08f2e0bda3)" style="fill: none; stroke: #52514e; stroke-width: 0.8; stroke-linecap: square"/>
   </g>
   <g id="line2d_3">
    <path d="M 170.683661 234.7776 
L 170.683661 230.3424 
" clip-path="url(#p08f2e0bda3)" style="fill: none; stroke: #52514e; stroke-width: 0.8; stroke-linecap: square"/>
   </g>
   <g id="line2d_4">
    <path d="M 207.219375 234.7776 
L 207.219375 230.3424 
" clip-path="url(#p08f2e0bda3)" style="fill: none; stroke: #52514e; stroke-width: 0.8; stroke-linecap: square"/>
   </g>
   <g id="line2d_5">
    <path d="M 243.755089 234.7776 
L 243.755089 230.3424 
" clip-path="url(#p08f2e0bda3)" style="fill: none; stroke: #52514e; stroke-width: 0.8; stroke-linecap: square"/>
   </g>
   <g id="line2d_6">
    <path d="M 280.290804 234.7776 
L 280.290804 230.3424 
" clip-path="url(#p08f2e0bda3)" style="fill: none; stroke: #52514e; stroke-width: 0.8; stroke-linecap: square"/>
   </g>
   <g id="line2d_7">
    <path d="M 316.826518 234.7776 
L 316.826518 230.3424 
" clip-path="url(#p08f2e0bda3)" style="fill: none; stroke: #52514e; stroke-width: 0.8; stroke-linecap: square"/>
   </g>
   <g id="line2d_8">
    <path d="M 353.362232 234.7776 
L 353.362232 230.3424 
" clip-path="url(#p08f2e0bda3)" style="fill: none; stroke: #52514e; stroke-width: 0.8; stroke-linecap: square"/>
   </g>
   <g id="line2d_9">
    <path d="M 389.897946 234.7776 
L 389.897946 230.3424 
" clip-path="url(#p08f2e0bda3)" style="fill: none; stroke: #52514e; stroke-width: 0.8; stroke-linecap: square"/>
   </g>
   <g id="line2d_10">
    <path d="M 426.433661 234.7776 
L 426.433661 230.3424 
" clip-path="url(#p08f2e0bda3)" style="fill: none; stroke: #52514e; stroke-width: 0.8; stroke-linecap: square"/>
   </g>
   <g id="line2d_11">
    <path d="M 462.969375 234.7776 
L 462.969375 230.3424 
" clip-path="url(#p08f2e0bda3)" style="fill: none; stroke: #52514e; stroke-width: 0.8; stroke-linecap: square"/>
   </g>
   <g id="text_1">
    <!-- μ=0  ·  15 kHz -->
    <g style="fill: #0b0b0b" transform="translate(17.409922 39.435825) scale(0.095 -0.095)">
     <defs>
      <path id="DejaVuSans-Bold-350" d="M 544 -1338 
L 544 3500 
L 1672 3500 
L 1672 1466 
Q 1672 1103 1828 926 
Q 1984 750 2303 750 
Q 2625 750 2781 926 
Q 2938 1103 2938 1466 
L 2938 3500 
L 4063 3500 
L 4063 1159 
Q 4063 938 4114 850 
Q 4166 763 4288 763 
Q 4344 763 4395 778 
Q 4447 794 4506 831 
L 4506 50 
Q 4341 -22 4195 -56 
Q 4050 -91 3909 -91 
Q 3631 -91 3454 26 
Q 3278 144 3169 403 
Q 3022 156 2811 32 
Q 2600 -91 2322 -91 
Q 2091 -91 1928 -17 
Q 1766 56 1672 206 
L 1672 -1338 
L 544 -1338 
z
" transform="scale(0.015625)"/>
      <path id="DejaVuSans-Bold-20" d="M 678 3084 
L 4684 3084 
L 4684 2350 
L 678 2350 
L 678 3084 
z
M 678 1663 
L 4684 1663 
L 4684 922 
L 678 922 
L 678 1663 
z
" transform="scale(0.015625)"/>
      <path id="DejaVuSans-Bold-13" d="M 2944 2338 
Q 2944 3213 2780 3570 
Q 2616 3928 2228 3928 
Q 1841 3928 1675 3570 
Q 1509 3213 1509 2338 
Q 1509 1453 1675 1090 
Q 1841 728 2228 728 
Q 2613 728 2778 1090 
Q 2944 1453 2944 2338 
z
M 4147 2328 
Q 4147 1169 3647 539 
Q 3147 -91 2228 -91 
Q 1306 -91 806 539 
Q 306 1169 306 2328 
Q 306 3491 806 4120 
Q 1306 4750 2228 4750 
Q 3147 4750 3647 4120 
Q 4147 3491 4147 2328 
z
" transform="scale(0.015625)"/>
      <path id="DejaVuSans-Bold-3" transform="scale(0.015625)"/>
      <path id="DejaVuSans-Bold-79" d="M 653 2828 
L 1778 2828 
L 1778 1619 
L 653 1619 
L 653 2828 
z
" transform="scale(0.015625)"/>
      <path id="DejaVuSans-Bold-14" d="M 750 831 
L 1813 831 
L 1813 3847 
L 722 3622 
L 722 4441 
L 1806 4666 
L 2950 4666 
L 2950 831 
L 4013 831 
L 4013 0 
L 750 0 
L 750 831 
z
" transform="scale(0.015625)"/>
      <path id="DejaVuSans-Bold-18" d="M 678 4666 
L 3669 4666 
L 3669 3781 
L 1638 3781 
L 1638 3059 
Q 1775 3097 1914 3117 
Q 2053 3138 2203 3138 
Q 3056 3138 3531 2711 
Q 4006 2284 4006 1522 
Q 4006 766 3489 337 
Q 2972 -91 2053 -91 
Q 1656 -91 1267 -14 
Q 878 63 494 219 
L 494 1166 
Q 875 947 1217 837 
Q 1559 728 1863 728 
Q 2300 728 2551 942 
Q 2803 1156 2803 1522 
Q 2803 1891 2551 2103 
Q 2300 2316 1863 2316 
Q 1603 2316 1309 2248 
Q 1016 2181 678 2041 
L 678 4666 
z
" transform="scale(0.015625)"/>
      <path id="DejaVuSans-Bold-4e" d="M 538 4863 
L 1656 4863 
L 1656 2216 
L 2944 3500 
L 4244 3500 
L 2534 1894 
L 4378 0 
L 3022 0 
L 1656 1459 
L 1656 0 
L 538 0 
L 538 4863 
z
" transform="scale(0.015625)"/>
      <path id="DejaVuSans-Bold-2b" d="M 588 4666 
L 1791 4666 
L 1791 2888 
L 3566 2888 
L 3566 4666 
L 4769 4666 
L 4769 0 
L 3566 0 
L 3566 1978 
L 1791 1978 
L 1791 0 
L 588 0 
L 588 4666 
z
" transform="scale(0.015625)"/>
      <path id="DejaVuSans-Bold-5d" d="M 366 3500 
L 3419 3500 
L 3419 2719 
L 1575 800 
L 3419 800 
L 3419 0 
L 288 0 
L 288 781 
L 2131 2700 
L 366 2700 
L 366 3500 
z
" transform="scale(0.015625)"/>
     </defs>
     <use xlink:href="#DejaVuSans-Bold-350"/>
     <use xlink:href="#DejaVuSans-Bold-20" transform="translate(73.578125 0)"/>
     <use xlink:href="#DejaVuSans-Bold-13" transform="translate(157.375 0)"/>
     <use xlink:href="#DejaVuSans-Bold-3" transform="translate(226.953125 0)"/>
     <use xlink:href="#DejaVuSans-Bold-3" transform="translate(261.765625 0)"/>
     <use xlink:href="#DejaVuSans-Bold-79" transform="translate(296.578125 0)"/>
     <use xlink:href="#DejaVuSans-Bold-3" transform="translate(334.5625 0)"/>
     <use xlink:href="#DejaVuSans-Bold-3" transform="translate(369.375 0)"/>
     <use xlink:href="#DejaVuSans-Bold-14" transform="translate(404.1875 0)"/>
     <use xlink:href="#DejaVuSans-Bold-18" transform="translate(473.765625 0)"/>
     <use xlink:href="#DejaVuSans-Bold-3" transform="translate(543.34375 0)"/>
     <use xlink:href="#DejaVuSans-Bold-4e" transform="translate(578.15625 0)"/>
     <use xlink:href="#DejaVuSans-Bold-2b" transform="translate(644.65625 0)"/>
     <use xlink:href="#DejaVuSans-Bold-5d" transform="translate(728.34375 0)"/>
    </g>
   </g>
   <g id="text_2">
    <!-- slot 0 -->
    <g style="fill: #ffffff" transform="translate(268.574749 39.17602) scale(0.085 -0.085)">
     <defs>
      <path id="DejaVuSans-56" d="M 2834 3397 
L 2834 2853 
Q 2591 2978 2328 3040 
Q 2066 3103 1784 3103 
Q 1356 3103 1142 2972 
Q 928 2841 928 2578 
Q 928 2378 1081 2264 
Q 1234 2150 1697 2047 
L 1894 2003 
Q 2506 1872 2764 1633 
Q 3022 1394 3022 966 
Q 3022 478 2636 193 
Q 2250 -91 1575 -91 
Q 1294 -91 989 -36 
Q 684 19 347 128 
L 347 722 
Q 666 556 975 473 
Q 1284 391 1588 391 
Q 1994 391 2212 530 
Q 2431 669 2431 922 
Q 2431 1156 2273 1281 
Q 2116 1406 1581 1522 
L 1381 1569 
Q 847 1681 609 1914 
Q 372 2147 372 2553 
Q 372 3047 722 3315 
Q 1072 3584 1716 3584 
Q 2034 3584 2315 3537 
Q 2597 3491 2834 3397 
z
" transform="scale(0.015625)"/>
      <path id="DejaVuSans-4f" d="M 603 4863 
L 1178 4863 
L 1178 0 
L 603 0 
L 603 4863 
z
" transform="scale(0.015625)"/>
      <path id="DejaVuSans-52" d="M 1959 3097 
Q 1497 3097 1228 2736 
Q 959 2375 959 1747 
Q 959 1119 1226 758 
Q 1494 397 1959 397 
Q 2419 397 2687 759 
Q 2956 1122 2956 1747 
Q 2956 2369 2687 2733 
Q 2419 3097 1959 3097 
z
M 1959 3584 
Q 2709 3584 3137 3096 
Q 3566 2609 3566 1747 
Q 3566 888 3137 398 
Q 2709 -91 1959 -91 
Q 1206 -91 779 398 
Q 353 888 353 1747 
Q 353 2609 779 3096 
Q 1206 3584 1959 3584 
z
" transform="scale(0.015625)"/>
      <path id="DejaVuSans-57" d="M 1172 4494 
L 1172 3500 
L 2356 3500 
L 2356 3053 
L 1172 3053 
L 1172 1153 
Q 1172 725 1289 603 
Q 1406 481 1766 481 
L 2356 481 
L 2356 0 
L 1766 0 
Q 1100 0 847 248 
Q 594 497 594 1153 
L 594 3053 
L 172 3053 
L 172 3500 
L 594 3500 
L 594 4494 
L 1172 4494 
z
" transform="scale(0.015625)"/>
      <path id="DejaVuSans-3" transform="scale(0.015625)"/>
      <path id="DejaVuSans-13" d="M 2034 4250 
Q 1547 4250 1301 3770 
Q 1056 3291 1056 2328 
Q 1056 1369 1301 889 
Q 1547 409 2034 409 
Q 2525 409 2770 889 
Q 3016 1369 3016 2328 
Q 3016 3291 2770 3770 
Q 2525 4250 2034 4250 
z
M 2034 4750 
Q 2819 4750 3233 4129 
Q 3647 3509 3647 2328 
Q 3647 1150 3233 529 
Q 2819 -91 2034 -91 
Q 1250 -91 836 529 
Q 422 1150 422 2328 
Q 422 3509 836 4129 
Q 1250 4750 2034 4750 
z
" transform="scale(0.015625)"/>
     </defs>
     <use xlink:href="#DejaVuSans-56"/>
     <use xlink:href="#DejaVuSans-4f" transform="translate(52.09375 0)"/>
     <use xlink:href="#DejaVuSans-52" transform="translate(79.875 0)"/>
     <use xlink:href="#DejaVuSans-57" transform="translate(141.0625 0)"/>
     <use xlink:href="#DejaVuSans-3" transform="translate(180.265625 0)"/>
     <use xlink:href="#DejaVuSans-13" transform="translate(212.046875 0)"/>
    </g>
   </g>
   <g id="text_3">
    <!--  1 slot/ms   slot 1000 µs   symbol ≈ 71.43 µs -->
    <g style="fill: #52514e" transform="translate(468.449732 39.198598) scale(0.085 -0.085)">
     <defs>
      <path id="DejaVuSansMono-3" transform="scale(0.015625)"/>
      <path id="DejaVuSansMono-14" d="M 844 531 
L 1825 531 
L 1825 4097 
L 769 3859 
L 769 4434 
L 1819 4666 
L 2450 4666 
L 2450 531 
L 3419 531 
L 3419 0 
L 844 0 
L 844 531 
z
" transform="scale(0.015625)"/>
      <path id="DejaVuSansMono-56" d="M 3041 3378 
L 3041 2816 
Q 2794 2959 2544 3031 
Q 2294 3103 2034 3103 
Q 1644 3103 1451 2976 
Q 1259 2850 1259 2591 
Q 1259 2356 1403 2240 
Q 1547 2125 2119 2016 
L 2350 1972 
Q 2778 1891 2998 1647 
Q 3219 1403 3219 1013 
Q 3219 494 2850 201 
Q 2481 -91 1825 -91 
Q 1566 -91 1281 -36 
Q 997 19 666 128 
L 666 722 
Q 988 556 1281 473 
Q 1575 391 1838 391 
Q 2219 391 2428 545 
Q 2638 700 2638 978 
Q 2638 1378 1872 1531 
L 1847 1538 
L 1631 1581 
Q 1134 1678 906 1908 
Q 678 2138 678 2534 
Q 678 3038 1018 3311 
Q 1359 3584 1991 3584 
Q 2272 3584 2531 3532 
Q 2791 3481 3041 3378 
z
" transform="scale(0.015625)"/>
      <path id="DejaVuSansMono-4f" d="M 1997 1269 
Q 1997 881 2139 684 
Q 2281 488 2559 488 
L 3231 488 
L 3231 0 
L 2503 0 
Q 1988 0 1705 331 
Q 1422 663 1422 1269 
L 1422 4447 
L 500 4447 
L 500 4897 
L 1997 4897 
L 1997 1269 
z
" transform="scale(0.015625)"/>
      <path id="DejaVuSansMono-52" d="M 1925 3097 
Q 1488 3097 1263 2756 
Q 1038 2416 1038 1747 
Q 1038 1081 1263 739 
Q 1488 397 1925 397 
Q 2366 397 2591 739 
Q 2816 1081 2816 1747 
Q 2816 2416 2591 2756 
Q 2366 3097 1925 3097 
z
M 1925 3584 
Q 2653 3584 3039 3112 
Q 3425 2641 3425 1747 
Q 3425 850 3040 379 
Q 2656 -91 1925 -91 
Q 1197 -91 812 379 
Q 428 850 428 1747 
Q 428 2641 812 3112 
Q 1197 3584 1925 3584 
z
" transform="scale(0.015625)"/>
      <path id="DejaVuSansMono-57" d="M 1919 4494 
L 1919 3500 
L 3225 3500 
L 3225 3053 
L 1919 3053 
L 1919 1153 
Q 1919 766 2066 612 
Q 2213 459 2578 459 
L 3225 459 
L 3225 0 
L 2522 0 
Q 1875 0 1609 259 
Q 1344 519 1344 1153 
L 1344 3053 
L 409 3053 
L 409 3500 
L 1344 3500 
L 1344 4494 
L 1919 4494 
z
" transform="scale(0.015625)"/>
      <path id="DejaVuSansMono-12" d="M 2778 4666 
L 3372 4666 
L 916 -594 
L 319 -594 
L 2778 4666 
z
" transform="scale(0.015625)"/>
      <path id="DejaVuSansMono-50" d="M 2113 3144 
Q 2219 3369 2383 3476 
Q 2547 3584 2778 3584 
Q 3200 3584 3373 3257 
Q 3547 2931 3547 2028 
L 3547 0 
L 3022 0 
L 3022 2003 
Q 3022 2744 2939 2923 
Q 2856 3103 2638 3103 
Q 2388 3103 2295 2911 
Q 2203 2719 2203 2003 
L 2203 0 
L 1678 0 
L 1678 2003 
Q 1678 2753 1589 2928 
Q 1500 3103 1269 3103 
Q 1041 3103 952 2911 
Q 863 2719 863 2003 
L 863 0 
L 341 0 
L 341 3500 
L 863 3500 
L 863 3200 
Q 966 3388 1120 3486 
Q 1275 3584 1472 3584 
Q 1709 3584 1867 3475 
Q 2025 3366 2113 3144 
z
" transform="scale(0.015625)"/>
      <path id="DejaVuSansMono-13" d="M 1509 2344 
Q 1509 2516 1629 2641 
Q 1750 2766 1919 2766 
Q 2094 2766 2219 2641 
Q 2344 2516 2344 2344 
Q 2344 2169 2220 2047 
Q 2097 1925 1919 1925 
Q 1744 1925 1626 2044 
Q 1509 2163 1509 2344 
z
M 1925 4250 
Q 1484 4250 1267 3775 
Q 1050 3300 1050 2328 
Q 1050 1359 1267 884 
Q 1484 409 1925 409 
Q 2369 409 2586 884 
Q 2803 1359 2803 2328 
Q 2803 3300 2586 3775 
Q 2369 4250 1925 4250 
z
M 1925 4750 
Q 2672 4750 3055 4137 
Q 3438 3525 3438 2328 
Q 3438 1134 3055 521 
Q 2672 -91 1925 -91 
Q 1178 -91 797 521 
Q 416 1134 416 2328 
Q 416 3525 797 4137 
Q 1178 4750 1925 4750 
z
" transform="scale(0.015625)"/>
      <path id="DejaVuSansMono-77" d="M 609 -1338 
L 609 3500 
L 1184 3500 
L 1184 1325 
Q 1184 881 1371 645 
Q 1559 409 1906 409 
Q 2303 409 2504 675 
Q 2706 941 2706 1459 
L 2706 3500 
L 3284 3500 
L 3284 800 
Q 3284 616 3334 528 
Q 3384 441 3488 441 
Q 3516 441 3561 456 
Q 3606 472 3694 513 
L 3694 50 
Q 3575 -22 3469 -56 
Q 3363 -91 3256 -91 
Q 3063 -91 2945 32 
Q 2828 156 2791 403 
Q 2647 153 2439 31 
Q 2231 -91 1953 -91 
Q 1666 -91 1467 28 
Q 1269 147 1131 397 
L 1131 -1338 
L 609 -1338 
z
" transform="scale(0.015625)"/>
      <path id="DejaVuSansMono-5c" d="M 2681 1125 
Q 2538 759 2316 163 
Q 2006 -663 1900 -844 
Q 1756 -1088 1540 -1209 
Q 1325 -1331 1038 -1331 
L 575 -1331 
L 575 -850 
L 916 -850 
Q 1169 -850 1312 -703 
Q 1456 -556 1678 56 
L 325 3500 
L 934 3500 
L 1972 763 
L 2994 3500 
L 3603 3500 
L 2681 1125 
z
" transform="scale(0.015625)"/>
      <path id="DejaVuSansMono-45" d="M 2869 1747 
Q 2869 2416 2656 2756 
Q 2444 3097 2028 3097 
Q 1609 3097 1393 2755 
Q 1178 2413 1178 1747 
Q 1178 1084 1393 740 
Q 1609 397 2028 397 
Q 2444 397 2656 737 
Q 2869 1078 2869 1747 
z
M 1178 3053 
Q 1316 3309 1558 3446 
Q 1800 3584 2119 3584 
Q 2750 3584 3112 3098 
Q 3475 2613 3475 1759 
Q 3475 894 3111 401 
Q 2747 -91 2113 -91 
Q 1800 -91 1561 45 
Q 1322 181 1178 441 
L 1178 0 
L 603 0 
L 603 4863 
L 1178 4863 
L 1178 3053 
z
" transform="scale(0.015625)"/>
      <path id="DejaVuSansMono-84c" d="M 3578 3009 
L 3578 2463 
Q 3344 2278 3120 2192 
Q 2897 2106 2650 2106 
Q 2369 2106 2016 2266 
Q 1947 2297 1913 2309 
Q 1672 2416 1511 2453 
Q 1350 2491 1191 2491 
Q 944 2491 723 2398 
Q 503 2306 275 2106 
L 275 2650 
Q 519 2838 747 2923 
Q 975 3009 1234 3009 
Q 1400 3009 1556 2975 
Q 1713 2941 1947 2841 
Q 1978 2828 2047 2794 
Q 2409 2625 2700 2625 
Q 2919 2625 3133 2719 
Q 3347 2813 3578 3009 
z
M 3578 1863 
L 3578 1313 
Q 3344 1128 3120 1040 
Q 2897 953 2650 953 
Q 2369 953 2016 1113 
Q 1947 1144 1913 1159 
Q 1653 1272 1498 1308 
Q 1344 1344 1191 1344 
Q 947 1344 726 1250 
Q 506 1156 275 953 
L 275 1497 
Q 522 1691 750 1777 
Q 978 1863 1234 1863 
Q 1534 1863 1941 1691 
L 1944 1691 
Q 1978 1675 2047 1644 
Q 2409 1472 2700 1472 
Q 2913 1472 3128 1567 
Q 3344 1663 3578 1863 
z
" transform="scale(0.015625)"/>
      <path id="DejaVuSansMono-1a" d="M 434 4666 
L 3372 4666 
L 3372 4397 
L 1703 0 
L 1044 0 
L 2669 4134 
L 434 4134 
L 434 4666 
z
" transform="scale(0.015625)"/>
      <path id="DejaVuSansMono-11" d="M 1528 953 
L 2316 953 
L 2316 0 
L 1528 0 
L 1528 953 
z
" transform="scale(0.015625)"/>
      <path id="DejaVuSansMono-17" d="M 2297 4091 
L 825 1625 
L 2297 1625 
L 2297 4091 
z
M 2194 4666 
L 2925 4666 
L 2925 1625 
L 3547 1625 
L 3547 1113 
L 2925 1113 
L 2925 0 
L 2297 0 
L 2297 1113 
L 319 1113 
L 319 1709 
L 2194 4666 
z
" transform="scale(0.015625)"/>
      <path id="DejaVuSansMono-16" d="M 2425 2497 
Q 2884 2375 3128 2064 
Q 3372 1753 3372 1288 
Q 3372 644 2939 276 
Q 2506 -91 1741 -91 
Q 1419 -91 1084 -31 
Q 750 28 428 141 
L 428 769 
Q 747 603 1056 522 
Q 1366 441 1672 441 
Q 2191 441 2469 675 
Q 2747 909 2747 1350 
Q 2747 1756 2469 1995 
Q 2191 2234 1716 2234 
L 1234 2234 
L 1234 2753 
L 1716 2753 
Q 2150 2753 2394 2943 
Q 2638 3134 2638 3475 
Q 2638 3834 2411 4026 
Q 2184 4219 1766 4219 
Q 1488 4219 1191 4156 
Q 894 4094 569 3969 
L 569 4550 
Q 947 4650 1242 4700 
Q 1538 4750 1766 4750 
Q 2447 4750 2855 4408 
Q 3263 4066 3263 3500 
Q 3263 3116 3048 2859 
Q 2834 2603 2425 2497 
z
" transform="scale(0.015625)"/>
     </defs>
     <use xlink:href="#DejaVuSansMono-3"/>
     <use xlink:href="#DejaVuSansMono-14" transform="translate(60.203125 0)"/>
     <use xlink:href="#DejaVuSansMono-3" transform="translate(120.40625 0)"/>
     <use xlink:href="#DejaVuSansMono-56" transform="translate(180.609375 0)"/>
     <use xlink:href="#DejaVuSansMono-4f" transform="translate(240.8125 0)"/>
     <use xlink:href="#DejaVuSansMono-52" transform="translate(301.015625 0)"/>
     <use xlink:href="#DejaVuSansMono-57" transform="translate(361.21875 0)"/>
     <use xlink:href="#DejaVuSansMono-12" transform="translate(421.421875 0)"/>
     <use xlink:href="#DejaVuSansMono-50" transform="translate(481.625 0)"/>
     <use xlink:href="#DejaVuSansMono-56" transform="translate(541.828125 0)"/>
     <use xlink:href="#DejaVuSansMono-3" transform="translate(602.03125 0)"/>
     <use xlink:href="#DejaVuSansMono-3" transform="translate(662.234375 0)"/>
     <use xlink:href="#DejaVuSansMono-3" transform="translate(722.4375 0)"/>
     <use xlink:href="#DejaVuSansMono-56" transform="translate(782.640625 0)"/>
     <use xlink:href="#DejaVuSansMono-4f" transform="translate(842.84375 0)"/>
     <use xlink:href="#DejaVuSansMono-52" transform="translate(903.046875 0)"/>
     <use xlink:href="#DejaVuSansMono-57" transform="translate(963.25 0)"/>
     <use xlink:href="#DejaVuSansMono-3" transform="translate(1023.453125 0)"/>
     <use xlink:href="#DejaVuSansMono-14" transform="translate(1083.65625 0)"/>
     <use xlink:href="#DejaVuSansMono-13" transform="translate(1143.859375 0)"/>
     <use xlink:href="#DejaVuSansMono-13" transform="translate(1204.0625 0)"/>
     <use xlink:href="#DejaVuSansMono-13" transform="translate(1264.265625 0)"/>
     <use xlink:href="#DejaVuSansMono-3" transform="translate(1324.46875 0)"/>
     <use xlink:href="#DejaVuSansMono-77" transform="translate(1384.671875 0)"/>
     <use xlink:href="#DejaVuSansMono-56" transform="translate(1444.875 0)"/>
     <use xlink:href="#DejaVuSansMono-3" transform="translate(1505.078125 0)"/>
     <use xlink:href="#DejaVuSansMono-3" transform="translate(1565.28125 0)"/>
     <use xlink:href="#DejaVuSansMono-3" transform="translate(1625.484375 0)"/>
     <use xlink:href="#DejaVuSansMono-56" transform="translate(1685.6875 0)"/>
     <use xlink:href="#DejaVuSansMono-5c" transform="translate(1745.890625 0)"/>
     <use xlink:href="#DejaVuSansMono-50" transform="translate(1806.09375 0)"/>
     <use xlink:href="#DejaVuSansMono-45" transform="translate(1866.296875 0)"/>
     <use xlink:href="#DejaVuSansMono-52" transform="translate(1926.5 0)"/>
     <use xlink:href="#DejaVuSansMono-4f" transform="translate(1986.703125 0)"/>
     <use xlink:href="#DejaVuSansMono-3" transform="translate(2046.90625 0)"/>
     <use xlink:href="#DejaVuSansMono-84c" transform="translate(2107.109375 0)"/>
     <use xlink:href="#DejaVuSansMono-3" transform="translate(2167.3125 0)"/>
     <use xlink:href="#DejaVuSansMono-1a" transform="translate(2227.515625 0)"/>
     <use xlink:href="#DejaVuSansMono-14" transform="translate(2287.71875 0)"/>
     <use xlink:href="#DejaVuSansMono-11" transform="translate(2347.921875 0)"/>
     <use xlink:href="#DejaVuSansMono-17" transform="translate(2408.125 0)"/>
     <use xlink:href="#DejaVuSansMono-16" transform="translate(2468.328125 0)"/>
     <use xlink:href="#DejaVuSansMono-3" transform="translate(2528.53125 0)"/>
     <use xlink:href="#DejaVuSansMono-77" transform="translate(2588.734375 0)"/>
     <use xlink:href="#DejaVuSansMono-56" transform="translate(2648.9375 0)"/>
    </g>
   </g>
   <g id="text_4">
    <!-- μ=1  ·  30 kHz -->
    <g style="fill: #0b0b0b" transform="translate(17.409922 83.787825) scale(0.095 -0.095)">
     <defs>
      <path id="DejaVuSans-Bold-16" d="M 2981 2516 
Q 3453 2394 3698 2092 
Q 3944 1791 3944 1325 
Q 3944 631 3412 270 
Q 2881 -91 1863 -91 
Q 1503 -91 1142 -33 
Q 781 25 428 141 
L 428 1069 
Q 766 900 1098 814 
Q 1431 728 1753 728 
Q 2231 728 2486 893 
Q 2741 1059 2741 1369 
Q 2741 1688 2480 1852 
Q 2219 2016 1709 2016 
L 1228 2016 
L 1228 2791 
L 1734 2791 
Q 2188 2791 2409 2933 
Q 2631 3075 2631 3366 
Q 2631 3634 2415 3781 
Q 2200 3928 1806 3928 
Q 1516 3928 1219 3862 
Q 922 3797 628 3669 
L 628 4550 
Q 984 4650 1334 4700 
Q 1684 4750 2022 4750 
Q 2931 4750 3382 4451 
Q 3834 4153 3834 3553 
Q 3834 3144 3618 2883 
Q 3403 2622 2981 2516 
z
" transform="scale(0.015625)"/>
     </defs>
     <use xlink:href="#DejaVuSans-Bold-350"/>
     <use xlink:href="#DejaVuSans-Bold-20" transform="translate(73.578125 0)"/>
     <use xlink:href="#DejaVuSans-Bold-14" transform="translate(157.375 0)"/>
     <use xlink:href="#DejaVuSans-Bold-3" transform="translate(226.953125 0)"/>
     <use xlink:href="#DejaVuSans-Bold-3" transform="translate(261.765625 0)"/>
     <use xlink:href="#DejaVuSans-Bold-79" transform="translate(296.578125 0)"/>
     <use xlink:href="#DejaVuSans-Bold-3" transform="translate(334.5625 0)"/>
     <use xlink:href="#DejaVuSans-Bold-3" transform="translate(369.375 0)"/>
     <use xlink:href="#DejaVuSans-Bold-16" transform="translate(404.1875 0)"/>
     <use xlink:href="#DejaVuSans-Bold-13" transform="translate(473.765625 0)"/>
     <use xlink:href="#DejaVuSans-Bold-3" transform="translate(543.34375 0)"/>
     <use xlink:href="#DejaVuSans-Bold-4e" transform="translate(578.15625 0)"/>
     <use xlink:href="#DejaVuSans-Bold-2b" transform="translate(644.65625 0)"/>
     <use xlink:href="#DejaVuSans-Bold-5d" transform="translate(728.34375 0)"/>
    </g>
   </g>
   <g id="text_5">
    <!-- slot 0 -->
    <g style="fill: #ffffff" transform="translate(177.235463 83.52802) scale(0.085 -0.085)">
     <use xlink:href="#DejaVuSans-56"/>
     <use xlink:href="#DejaVuSans-4f" transform="translate(52.09375 0)"/>
     <use xlink:href="#DejaVuSans-52" transform="translate(79.875 0)"/>
     <use xlink:href="#DejaVuSans-57" transform="translate(141.0625 0)"/>
     <use xlink:href="#DejaVuSans-3" transform="translate(180.265625 0)"/>
     <use xlink:href="#DejaVuSans-13" transform="translate(212.046875 0)"/>
    </g>
   </g>
   <g id="text_6">
    <!-- slot 1 -->
    <g style="fill: #ffffff" transform="translate(359.914035 83.52802) scale(0.085 -0.085)">
     <defs>
      <path id="DejaVuSans-14" d="M 794 531 
L 1825 531 
L 1825 4091 
L 703 3866 
L 703 4441 
L 1819 4666 
L 2450 4666 
L 2450 531 
L 3481 531 
L 3481 0 
L 794 0 
L 794 531 
z
" transform="scale(0.015625)"/>
     </defs>
     <use xlink:href="#DejaVuSans-56"/>
     <use xlink:href="#DejaVuSans-4f" transform="translate(52.09375 0)"/>
     <use xlink:href="#DejaVuSans-52" transform="translate(79.875 0)"/>
     <use xlink:href="#DejaVuSans-57" transform="translate(141.0625 0)"/>
     <use xlink:href="#DejaVuSans-3" transform="translate(180.265625 0)"/>
     <use xlink:href="#DejaVuSans-14" transform="translate(212.046875 0)"/>
    </g>
   </g>
   <g id="text_7">
    <!--  2 slot/ms   slot 500 µs   symbol ≈ 35.71 µs -->
    <g style="fill: #52514e" transform="translate(468.449732 83.550598) scale(0.085 -0.085)">
     <defs>
      <path id="DejaVuSansMono-15" d="M 1166 531 
L 3309 531 
L 3309 0 
L 475 0 
L 475 531 
Q 1059 1147 1496 1619 
Q 1934 2091 2100 2284 
Q 2413 2666 2522 2902 
Q 2631 3138 2631 3384 
Q 2631 3775 2401 3997 
Q 2172 4219 1772 4219 
Q 1488 4219 1175 4116 
Q 863 4013 513 3803 
L 513 4441 
Q 834 4594 1145 4672 
Q 1456 4750 1759 4750 
Q 2444 4750 2861 4386 
Q 3278 4022 3278 3431 
Q 3278 3131 3139 2831 
Q 3000 2531 2688 2169 
Q 2513 1966 2180 1606 
Q 1847 1247 1166 531 
z
" transform="scale(0.015625)"/>
      <path id="DejaVuSansMono-18" d="M 647 4666 
L 3009 4666 
L 3009 4134 
L 1222 4134 
L 1222 2988 
Q 1356 3038 1492 3061 
Q 1628 3084 1766 3084 
Q 2491 3084 2916 2656 
Q 3341 2228 3341 1497 
Q 3341 759 2895 334 
Q 2450 -91 1678 -91 
Q 1306 -91 998 -41 
Q 691 9 447 109 
L 447 750 
Q 734 594 1025 517 
Q 1316 441 1619 441 
Q 2141 441 2423 716 
Q 2706 991 2706 1497 
Q 2706 1997 2414 2275 
Q 2122 2553 1600 2553 
Q 1347 2553 1106 2495 
Q 866 2438 647 2322 
L 647 4666 
z
" transform="scale(0.015625)"/>
     </defs>
     <use xlink:href="#DejaVuSansMono-3"/>
     <use xlink:href="#DejaVuSansMono-15" transform="translate(60.203125 0)"/>
     <use xlink:href="#DejaVuSansMono-3" transform="translate(120.40625 0)"/>
     <use xlink:href="#DejaVuSansMono-56" transform="translate(180.609375 0)"/>
     <use xlink:href="#DejaVuSansMono-4f" transform="translate(240.8125 0)"/>
     <use xlink:href="#DejaVuSansMono-52" transform="translate(301.015625 0)"/>
     <use xlink:href="#DejaVuSansMono-57" transform="translate(361.21875 0)"/>
     <use xlink:href="#DejaVuSansMono-12" transform="translate(421.421875 0)"/>
     <use xlink:href="#DejaVuSansMono-50" transform="translate(481.625 0)"/>
     <use xlink:href="#DejaVuSansMono-56" transform="translate(541.828125 0)"/>
     <use xlink:href="#DejaVuSansMono-3" transform="translate(602.03125 0)"/>
     <use xlink:href="#DejaVuSansMono-3" transform="translate(662.234375 0)"/>
     <use xlink:href="#DejaVuSansMono-3" transform="translate(722.4375 0)"/>
     <use xlink:href="#DejaVuSansMono-56" transform="translate(782.640625 0)"/>
     <use xlink:href="#DejaVuSansMono-4f" transform="translate(842.84375 0)"/>
     <use xlink:href="#DejaVuSansMono-52" transform="translate(903.046875 0)"/>
     <use xlink:href="#DejaVuSansMono-57" transform="translate(963.25 0)"/>
     <use xlink:href="#DejaVuSansMono-3" transform="translate(1023.453125 0)"/>
     <use xlink:href="#DejaVuSansMono-18" transform="translate(1083.65625 0)"/>
     <use xlink:href="#DejaVuSansMono-13" transform="translate(1143.859375 0)"/>
     <use xlink:href="#DejaVuSansMono-13" transform="translate(1204.0625 0)"/>
     <use xlink:href="#DejaVuSansMono-3" transform="translate(1264.265625 0)"/>
     <use xlink:href="#DejaVuSansMono-77" transform="translate(1324.46875 0)"/>
     <use xlink:href="#DejaVuSansMono-56" transform="translate(1384.671875 0)"/>
     <use xlink:href="#DejaVuSansMono-3" transform="translate(1444.875 0)"/>
     <use xlink:href="#DejaVuSansMono-3" transform="translate(1505.078125 0)"/>
     <use xlink:href="#DejaVuSansMono-3" transform="translate(1565.28125 0)"/>
     <use xlink:href="#DejaVuSansMono-56" transform="translate(1625.484375 0)"/>
     <use xlink:href="#DejaVuSansMono-5c" transform="translate(1685.6875 0)"/>
     <use xlink:href="#DejaVuSansMono-50" transform="translate(1745.890625 0)"/>
     <use xlink:href="#DejaVuSansMono-45" transform="translate(1806.09375 0)"/>
     <use xlink:href="#DejaVuSansMono-52" transform="translate(1866.296875 0)"/>
     <use xlink:href="#DejaVuSansMono-4f" transform="translate(1926.5 0)"/>
     <use xlink:href="#DejaVuSansMono-3" transform="translate(1986.703125 0)"/>
     <use xlink:href="#DejaVuSansMono-84c" transform="translate(2046.90625 0)"/>
     <use xlink:href="#DejaVuSansMono-3" transform="translate(2107.109375 0)"/>
     <use xlink:href="#DejaVuSansMono-16" transform="translate(2167.3125 0)"/>
     <use xlink:href="#DejaVuSansMono-18" transform="translate(2227.515625 0)"/>
     <use xlink:href="#DejaVuSansMono-11" transform="translate(2287.71875 0)"/>
     <use xlink:href="#DejaVuSansMono-1a" transform="translate(2347.921875 0)"/>
     <use xlink:href="#DejaVuSansMono-14" transform="translate(2408.125 0)"/>
     <use xlink:href="#DejaVuSansMono-3" transform="translate(2468.328125 0)"/>
     <use xlink:href="#DejaVuSansMono-77" transform="translate(2528.53125 0)"/>
     <use xlink:href="#DejaVuSansMono-56" transform="translate(2588.734375 0)"/>
    </g>
   </g>
   <g id="text_8">
    <!-- μ=2  ·  60 kHz -->
    <g style="fill: #0b0b0b" transform="translate(17.409922 128.139825) scale(0.095 -0.095)">
     <defs>
      <path id="DejaVuSans-Bold-15" d="M 1844 884 
L 3897 884 
L 3897 0 
L 506 0 
L 506 884 
L 2209 2388 
Q 2438 2594 2547 2791 
Q 2656 2988 2656 3200 
Q 2656 3528 2436 3728 
Q 2216 3928 1850 3928 
Q 1569 3928 1234 3808 
Q 900 3688 519 3450 
L 519 4475 
Q 925 4609 1322 4679 
Q 1719 4750 2100 4750 
Q 2938 4750 3402 4381 
Q 3866 4013 3866 3353 
Q 3866 2972 3669 2642 
Q 3472 2313 2841 1759 
L 1844 884 
z
" transform="scale(0.015625)"/>
      <path id="DejaVuSans-Bold-19" d="M 2316 2303 
Q 2000 2303 1842 2098 
Q 1684 1894 1684 1484 
Q 1684 1075 1842 870 
Q 2000 666 2316 666 
Q 2634 666 2792 870 
Q 2950 1075 2950 1484 
Q 2950 1894 2792 2098 
Q 2634 2303 2316 2303 
z
M 3803 4544 
L 3803 3681 
Q 3506 3822 3243 3889 
Q 2981 3956 2731 3956 
Q 2194 3956 1894 3657 
Q 1594 3359 1544 2772 
Q 1750 2925 1990 3001 
Q 2231 3078 2516 3078 
Q 3231 3078 3670 2659 
Q 4109 2241 4109 1563 
Q 4109 813 3618 361 
Q 3128 -91 2303 -91 
Q 1394 -91 895 523 
Q 397 1138 397 2266 
Q 397 3422 980 4083 
Q 1563 4744 2578 4744 
Q 2900 4744 3203 4694 
Q 3506 4644 3803 4544 
z
" transform="scale(0.015625)"/>
     </defs>
     <use xlink:href="#DejaVuSans-Bold-350"/>
     <use xlink:href="#DejaVuSans-Bold-20" transform="translate(73.578125 0)"/>
     <use xlink:href="#DejaVuSans-Bold-15" transform="translate(157.375 0)"/>
     <use xlink:href="#DejaVuSans-Bold-3" transform="translate(226.953125 0)"/>
     <use xlink:href="#DejaVuSans-Bold-3" transform="translate(261.765625 0)"/>
     <use xlink:href="#DejaVuSans-Bold-79" transform="translate(296.578125 0)"/>
     <use xlink:href="#DejaVuSans-Bold-3" transform="translate(334.5625 0)"/>
     <use xlink:href="#DejaVuSans-Bold-3" transform="translate(369.375 0)"/>
     <use xlink:href="#DejaVuSans-Bold-19" transform="translate(404.1875 0)"/>
     <use xlink:href="#DejaVuSans-Bold-13" transform="translate(473.765625 0)"/>
     <use xlink:href="#DejaVuSans-Bold-3" transform="translate(543.34375 0)"/>
     <use xlink:href="#DejaVuSans-Bold-4e" transform="translate(578.15625 0)"/>
     <use xlink:href="#DejaVuSans-Bold-2b" transform="translate(644.65625 0)"/>
     <use xlink:href="#DejaVuSans-Bold-5d" transform="translate(728.34375 0)"/>
    </g>
   </g>
   <g id="text_9">
    <!-- slot 0 -->
    <g style="fill: #ffffff" transform="translate(131.56582 127.88002) scale(0.085 -0.085)">
     <use xlink:href="#DejaVuSans-56"/>
     <use xlink:href="#DejaVuSans-4f" transform="translate(52.09375 0)"/>
     <use xlink:href="#DejaVuSans-52" transform="translate(79.875 0)"/>
     <use xlink:href="#DejaVuSans-57" transform="translate(141.0625 0)"/>
     <use xlink:href="#DejaVuSans-3" transform="translate(180.265625 0)"/>
     <use xlink:href="#DejaVuSans-13" transform="translate(212.046875 0)"/>
    </g>
   </g>
   <g id="text_10">
    <!-- slot 1 -->
    <g style="fill: #ffffff" transform="translate(222.905106 127.88002) scale(0.085 -0.085)">
     <use xlink:href="#DejaVuSans-56"/>
     <use xlink:href="#DejaVuSans-4f" transform="translate(52.09375 0)"/>
     <use xlink:href="#DejaVuSans-52" transform="translate(79.875 0)"/>
     <use xlink:href="#DejaVuSans-57" transform="translate(141.0625 0)"/>
     <use xlink:href="#DejaVuSans-3" transform="translate(180.265625 0)"/>
     <use xlink:href="#DejaVuSans-14" transform="translate(212.046875 0)"/>
    </g>
   </g>
   <g id="text_11">
    <!-- slot 2 -->
    <g style="fill: #ffffff" transform="translate(314.244392 127.88002) scale(0.085 -0.085)">
     <defs>
      <path id="DejaVuSans-15" d="M 1228 531 
L 3431 531 
L 3431 0 
L 469 0 
L 469 531 
Q 828 903 1448 1529 
Q 2069 2156 2228 2338 
Q 2531 2678 2651 2914 
Q 2772 3150 2772 3378 
Q 2772 3750 2511 3984 
Q 2250 4219 1831 4219 
Q 1534 4219 1204 4116 
Q 875 4013 500 3803 
L 500 4441 
Q 881 4594 1212 4672 
Q 1544 4750 1819 4750 
Q 2544 4750 2975 4387 
Q 3406 4025 3406 3419 
Q 3406 3131 3298 2873 
Q 3191 2616 2906 2266 
Q 2828 2175 2409 1742 
Q 1991 1309 1228 531 
z
" transform="scale(0.015625)"/>
     </defs>
     <use xlink:href="#DejaVuSans-56"/>
     <use xlink:href="#DejaVuSans-4f" transform="translate(52.09375 0)"/>
     <use xlink:href="#DejaVuSans-52" transform="translate(79.875 0)"/>
     <use xlink:href="#DejaVuSans-57" transform="translate(141.0625 0)"/>
     <use xlink:href="#DejaVuSans-3" transform="translate(180.265625 0)"/>
     <use xlink:href="#DejaVuSans-15" transform="translate(212.046875 0)"/>
    </g>
   </g>
   <g id="text_12">
    <!-- slot 3 -->
    <g style="fill: #ffffff" transform="translate(405.583677 127.88002) scale(0.085 -0.085)">
     <defs>
      <path id="DejaVuSans-16" d="M 2597 2516 
Q 3050 2419 3304 2112 
Q 3559 1806 3559 1356 
Q 3559 666 3084 287 
Q 2609 -91 1734 -91 
Q 1441 -91 1130 -33 
Q 819 25 488 141 
L 488 750 
Q 750 597 1062 519 
Q 1375 441 1716 441 
Q 2309 441 2620 675 
Q 2931 909 2931 1356 
Q 2931 1769 2642 2001 
Q 2353 2234 1838 2234 
L 1294 2234 
L 1294 2753 
L 1863 2753 
Q 2328 2753 2575 2939 
Q 2822 3125 2822 3475 
Q 2822 3834 2567 4026 
Q 2313 4219 1838 4219 
Q 1578 4219 1281 4162 
Q 984 4106 628 3988 
L 628 4550 
Q 988 4650 1302 4700 
Q 1616 4750 1894 4750 
Q 2613 4750 3031 4423 
Q 3450 4097 3450 3541 
Q 3450 3153 3228 2886 
Q 3006 2619 2597 2516 
z
" transform="scale(0.015625)"/>
     </defs>
     <use xlink:href="#DejaVuSans-56"/>
     <use xlink:href="#DejaVuSans-4f" transform="translate(52.09375 0)"/>
     <use xlink:href="#DejaVuSans-52" transform="translate(79.875 0)"/>
     <use xlink:href="#DejaVuSans-57" transform="translate(141.0625 0)"/>
     <use xlink:href="#DejaVuSans-3" transform="translate(180.265625 0)"/>
     <use xlink:href="#DejaVuSans-16" transform="translate(212.046875 0)"/>
    </g>
   </g>
   <g id="text_13">
    <!--  4 slot/ms   slot 250 µs   symbol ≈ 17.86 µs -->
    <g style="fill: #52514e" transform="translate(468.449732 127.902598) scale(0.085 -0.085)">
     <defs>
      <path id="DejaVuSansMono-1b" d="M 1925 2216 
Q 1503 2216 1273 1980 
Q 1044 1744 1044 1313 
Q 1044 881 1276 642 
Q 1509 403 1925 403 
Q 2350 403 2579 639 
Q 2809 875 2809 1313 
Q 2809 1741 2576 1978 
Q 2344 2216 1925 2216 
z
M 1375 2478 
Q 972 2581 745 2862 
Q 519 3144 519 3541 
Q 519 4097 897 4423 
Q 1275 4750 1925 4750 
Q 2578 4750 2956 4423 
Q 3334 4097 3334 3541 
Q 3334 3144 3107 2862 
Q 2881 2581 2478 2478 
Q 2947 2375 3195 2062 
Q 3444 1750 3444 1253 
Q 3444 622 3041 265 
Q 2638 -91 1925 -91 
Q 1213 -91 811 264 
Q 409 619 409 1247 
Q 409 1747 657 2061 
Q 906 2375 1375 2478 
z
M 1147 3481 
Q 1147 3106 1347 2909 
Q 1547 2713 1925 2713 
Q 2306 2713 2506 2909 
Q 2706 3106 2706 3481 
Q 2706 3863 2507 4063 
Q 2309 4263 1925 4263 
Q 1547 4263 1347 4061 
Q 1147 3859 1147 3481 
z
" transform="scale(0.015625)"/>
      <path id="DejaVuSansMono-19" d="M 3097 4563 
L 3097 3981 
Q 2900 4097 2678 4158 
Q 2456 4219 2216 4219 
Q 1616 4219 1306 3767 
Q 997 3316 997 2438 
Q 1147 2750 1412 2917 
Q 1678 3084 2022 3084 
Q 2697 3084 3067 2670 
Q 3438 2256 3438 1497 
Q 3438 741 3056 325 
Q 2675 -91 1984 -91 
Q 1172 -91 794 492 
Q 416 1075 416 2328 
Q 416 3509 870 4129 
Q 1325 4750 2188 4750 
Q 2419 4750 2650 4701 
Q 2881 4653 3097 4563 
z
M 1972 2591 
Q 1569 2591 1337 2300 
Q 1106 2009 1106 1497 
Q 1106 984 1337 693 
Q 1569 403 1972 403 
Q 2391 403 2603 679 
Q 2816 956 2816 1497 
Q 2816 2041 2603 2316 
Q 2391 2591 1972 2591 
z
" transform="scale(0.015625)"/>
     </defs>
     <use xlink:href="#DejaVuSansMono-3"/>
     <use xlink:href="#DejaVuSansMono-17" transform="translate(60.203125 0)"/>
     <use xlink:href="#DejaVuSansMono-3" transform="translate(120.40625 0)"/>
     <use xlink:href="#DejaVuSansMono-56" transform="translate(180.609375 0)"/>
     <use xlink:href="#DejaVuSansMono-4f" transform="translate(240.8125 0)"/>
     <use xlink:href="#DejaVuSansMono-52" transform="translate(301.015625 0)"/>
     <use xlink:href="#DejaVuSansMono-57" transform="translate(361.21875 0)"/>
     <use xlink:href="#DejaVuSansMono-12" transform="translate(421.421875 0)"/>
     <use xlink:href="#DejaVuSansMono-50" transform="translate(481.625 0)"/>
     <use xlink:href="#DejaVuSansMono-56" transform="translate(541.828125 0)"/>
     <use xlink:href="#DejaVuSansMono-3" transform="translate(602.03125 0)"/>
     <use xlink:href="#DejaVuSansMono-3" transform="translate(662.234375 0)"/>
     <use xlink:href="#DejaVuSansMono-3" transform="translate(722.4375 0)"/>
     <use xlink:href="#DejaVuSansMono-56" transform="translate(782.640625 0)"/>
     <use xlink:href="#DejaVuSansMono-4f" transform="translate(842.84375 0)"/>
     <use xlink:href="#DejaVuSansMono-52" transform="translate(903.046875 0)"/>
     <use xlink:href="#DejaVuSansMono-57" transform="translate(963.25 0)"/>
     <use xlink:href="#DejaVuSansMono-3" transform="translate(1023.453125 0)"/>
     <use xlink:href="#DejaVuSansMono-15" transform="translate(1083.65625 0)"/>
     <use xlink:href="#DejaVuSansMono-18" transform="translate(1143.859375 0)"/>
     <use xlink:href="#DejaVuSansMono-13" transform="translate(1204.0625 0)"/>
     <use xlink:href="#DejaVuSansMono-3" transform="translate(1264.265625 0)"/>
     <use xlink:href="#DejaVuSansMono-77" transform="translate(1324.46875 0)"/>
     <use xlink:href="#DejaVuSansMono-56" transform="translate(1384.671875 0)"/>
     <use xlink:href="#DejaVuSansMono-3" transform="translate(1444.875 0)"/>
     <use xlink:href="#DejaVuSansMono-3" transform="translate(1505.078125 0)"/>
     <use xlink:href="#DejaVuSansMono-3" transform="translate(1565.28125 0)"/>
     <use xlink:href="#DejaVuSansMono-56" transform="translate(1625.484375 0)"/>
     <use xlink:href="#DejaVuSansMono-5c" transform="translate(1685.6875 0)"/>
     <use xlink:href="#DejaVuSansMono-50" transform="translate(1745.890625 0)"/>
     <use xlink:href="#DejaVuSansMono-45" transform="translate(1806.09375 0)"/>
     <use xlink:href="#DejaVuSansMono-52" transform="translate(1866.296875 0)"/>
     <use xlink:href="#DejaVuSansMono-4f" transform="translate(1926.5 0)"/>
     <use xlink:href="#DejaVuSansMono-3" transform="translate(1986.703125 0)"/>
     <use xlink:href="#DejaVuSansMono-84c" transform="translate(2046.90625 0)"/>
     <use xlink:href="#DejaVuSansMono-3" transform="translate(2107.109375 0)"/>
     <use xlink:href="#DejaVuSansMono-14" transform="translate(2167.3125 0)"/>
     <use xlink:href="#DejaVuSansMono-1a" transform="translate(2227.515625 0)"/>
     <use xlink:href="#DejaVuSansMono-11" transform="translate(2287.71875 0)"/>
     <use xlink:href="#DejaVuSansMono-1b" transform="translate(2347.921875 0)"/>
     <use xlink:href="#DejaVuSansMono-19" transform="translate(2408.125 0)"/>
     <use xlink:href="#DejaVuSansMono-3" transform="translate(2468.328125 0)"/>
     <use xlink:href="#DejaVuSansMono-77" transform="translate(2528.53125 0)"/>
     <use xlink:href="#DejaVuSansMono-56" transform="translate(2588.734375 0)"/>
    </g>
   </g>
   <g id="text_14">
    <!-- μ=3  ·  120 kHz -->
    <g style="fill: #0b0b0b" transform="translate(10.8 172.491825) scale(0.095 -0.095)">
     <use xlink:href="#DejaVuSans-Bold-350"/>
     <use xlink:href="#DejaVuSans-Bold-20" transform="translate(73.578125 0)"/>
     <use xlink:href="#DejaVuSans-Bold-16" transform="translate(157.375 0)"/>
     <use xlink:href="#DejaVuSans-Bold-3" transform="translate(226.953125 0)"/>
     <use xlink:href="#DejaVuSans-Bold-3" transform="translate(261.765625 0)"/>
     <use xlink:href="#DejaVuSans-Bold-79" transform="translate(296.578125 0)"/>
     <use xlink:href="#DejaVuSans-Bold-3" transform="translate(334.5625 0)"/>
     <use xlink:href="#DejaVuSans-Bold-3" transform="translate(369.375 0)"/>
     <use xlink:href="#DejaVuSans-Bold-14" transform="translate(404.1875 0)"/>
     <use xlink:href="#DejaVuSans-Bold-15" transform="translate(473.765625 0)"/>
     <use xlink:href="#DejaVuSans-Bold-13" transform="translate(543.34375 0)"/>
     <use xlink:href="#DejaVuSans-Bold-3" transform="translate(612.921875 0)"/>
     <use xlink:href="#DejaVuSans-Bold-4e" transform="translate(647.734375 0)"/>
     <use xlink:href="#DejaVuSans-Bold-2b" transform="translate(714.234375 0)"/>
     <use xlink:href="#DejaVuSans-Bold-5d" transform="translate(797.921875 0)"/>
    </g>
   </g>
   <g id="text_15">
    <!-- 0 -->
    <g style="fill: #ffffff" transform="translate(117.742991 172.231688) scale(0.085 -0.085)">
     <use xlink:href="#DejaVuSans-13"/>
    </g>
   </g>
   <g id="text_16">
    <!-- 1 -->
    <g style="fill: #ffffff" transform="translate(163.412634 172.231688) scale(0.085 -0.085)">
     <use xlink:href="#DejaVuSans-14"/>
    </g>
   </g>
   <g id="text_17">
    <!-- 2 -->
    <g style="fill: #ffffff" transform="translate(209.082277 172.231688) scale(0.085 -0.085)">
     <use xlink:href="#DejaVuSans-15"/>
    </g>
   </g>
   <g id="text_18">
    <!-- 3 -->
    <g style="fill: #ffffff" transform="translate(254.75192 172.231688) scale(0.085 -0.085)">
     <use xlink:href="#DejaVuSans-16"/>
    </g>
   </g>
   <g id="text_19">
    <!-- 4 -->
    <g style="fill: #ffffff" transform="translate(300.421562 172.231688) scale(0.085 -0.085)">
     <defs>
      <path id="DejaVuSans-17" d="M 2419 4116 
L 825 1625 
L 2419 1625 
L 2419 4116 
z
M 2253 4666 
L 3047 4666 
L 3047 1625 
L 3713 1625 
L 3713 1100 
L 3047 1100 
L 3047 0 
L 2419 0 
L 2419 1100 
L 313 1100 
L 313 1709 
L 2253 4666 
z
" transform="scale(0.015625)"/>
     </defs>
     <use xlink:href="#DejaVuSans-17"/>
    </g>
   </g>
   <g id="text_20">
    <!-- 5 -->
    <g style="fill: #ffffff" transform="translate(346.091205 172.231688) scale(0.085 -0.085)">
     <defs>
      <path id="DejaVuSans-18" d="M 691 4666 
L 3169 4666 
L 3169 4134 
L 1269 4134 
L 1269 2991 
Q 1406 3038 1543 3061 
Q 1681 3084 1819 3084 
Q 2600 3084 3056 2656 
Q 3513 2228 3513 1497 
Q 3513 744 3044 326 
Q 2575 -91 1722 -91 
Q 1428 -91 1123 -41 
Q 819 9 494 109 
L 494 744 
Q 775 591 1075 516 
Q 1375 441 1709 441 
Q 2250 441 2565 725 
Q 2881 1009 2881 1497 
Q 2881 1984 2565 2268 
Q 2250 2553 1709 2553 
Q 1456 2553 1204 2497 
Q 953 2441 691 2322 
L 691 4666 
z
" transform="scale(0.015625)"/>
     </defs>
     <use xlink:href="#DejaVuSans-18"/>
    </g>
   </g>
   <g id="text_21">
    <!-- 6 -->
    <g style="fill: #ffffff" transform="translate(391.760848 172.231688) scale(0.085 -0.085)">
     <defs>
      <path id="DejaVuSans-19" d="M 2113 2584 
Q 1688 2584 1439 2293 
Q 1191 2003 1191 1497 
Q 1191 994 1439 701 
Q 1688 409 2113 409 
Q 2538 409 2786 701 
Q 3034 994 3034 1497 
Q 3034 2003 2786 2293 
Q 2538 2584 2113 2584 
z
M 3366 4563 
L 3366 3988 
Q 3128 4100 2886 4159 
Q 2644 4219 2406 4219 
Q 1781 4219 1451 3797 
Q 1122 3375 1075 2522 
Q 1259 2794 1537 2939 
Q 1816 3084 2150 3084 
Q 2853 3084 3261 2657 
Q 3669 2231 3669 1497 
Q 3669 778 3244 343 
Q 2819 -91 2113 -91 
Q 1303 -91 875 529 
Q 447 1150 447 2328 
Q 447 3434 972 4092 
Q 1497 4750 2381 4750 
Q 2619 4750 2861 4703 
Q 3103 4656 3366 4563 
z
" transform="scale(0.015625)"/>
     </defs>
     <use xlink:href="#DejaVuSans-19"/>
    </g>
   </g>
   <g id="text_22">
    <!-- 7 -->
    <g style="fill: #ffffff" transform="translate(437.430491 172.231688) scale(0.085 -0.085)">
     <defs>
      <path id="DejaVuSans-1a" d="M 525 4666 
L 3525 4666 
L 3525 4397 
L 1831 0 
L 1172 0 
L 2766 4134 
L 525 4134 
L 525 4666 
z
" transform="scale(0.015625)"/>
     </defs>
     <use xlink:href="#DejaVuSans-1a"/>
    </g>
   </g>
   <g id="text_23">
    <!--  8 slot/ms   slot 125 µs   symbol ≈ 8.93 µs -->
    <g style="fill: #52514e" transform="translate(468.449732 172.254598) scale(0.085 -0.085)">
     <defs>
      <path id="DejaVuSansMono-1c" d="M 1863 2069 
Q 2266 2069 2495 2359 
Q 2725 2650 2725 3163 
Q 2725 3675 2495 3965 
Q 2266 4256 1863 4256 
Q 1444 4256 1231 3979 
Q 1019 3703 1019 3163 
Q 1019 2619 1230 2344 
Q 1441 2069 1863 2069 
z
M 738 97 
L 738 678 
Q 934 563 1156 502 
Q 1378 441 1619 441 
Q 2219 441 2526 892 
Q 2834 1344 2834 2222 
Q 2688 1909 2422 1742 
Q 2156 1575 1813 1575 
Q 1138 1575 767 1990 
Q 397 2406 397 3169 
Q 397 3922 776 4336 
Q 1156 4750 1850 4750 
Q 2663 4750 3041 4165 
Q 3419 3581 3419 2328 
Q 3419 1150 2964 529 
Q 2509 -91 1644 -91 
Q 1416 -91 1184 -42 
Q 953 6 738 97 
z
" transform="scale(0.015625)"/>
     </defs>
     <use xlink:href="#DejaVuSansMono-3"/>
     <use xlink:href="#DejaVuSansMono-1b" transform="translate(60.203125 0)"/>
     <use xlink:href="#DejaVuSansMono-3" transform="translate(120.40625 0)"/>
     <use xlink:href="#DejaVuSansMono-56" transform="translate(180.609375 0)"/>
     <use xlink:href="#DejaVuSansMono-4f" transform="translate(240.8125 0)"/>
     <use xlink:href="#DejaVuSansMono-52" transform="translate(301.015625 0)"/>
     <use xlink:href="#DejaVuSansMono-57" transform="translate(361.21875 0)"/>
     <use xlink:href="#DejaVuSansMono-12" transform="translate(421.421875 0)"/>
     <use xlink:href="#DejaVuSansMono-50" transform="translate(481.625 0)"/>
     <use xlink:href="#DejaVuSansMono-56" transform="translate(541.828125 0)"/>
     <use xlink:href="#DejaVuSansMono-3" transform="translate(602.03125 0)"/>
     <use xlink:href="#DejaVuSansMono-3" transform="translate(662.234375 0)"/>
     <use xlink:href="#DejaVuSansMono-3" transform="translate(722.4375 0)"/>
     <use xlink:href="#DejaVuSansMono-56" transform="translate(782.640625 0)"/>
     <use xlink:href="#DejaVuSansMono-4f" transform="translate(842.84375 0)"/>
     <use xlink:href="#DejaVuSansMono-52" transform="translate(903.046875 0)"/>
     <use xlink:href="#DejaVuSansMono-57" transform="translate(963.25 0)"/>
     <use xlink:href="#DejaVuSansMono-3" transform="translate(1023.453125 0)"/>
     <use xlink:href="#DejaVuSansMono-14" transform="translate(1083.65625 0)"/>
     <use xlink:href="#DejaVuSansMono-15" transform="translate(1143.859375 0)"/>
     <use xlink:href="#DejaVuSansMono-18" transform="translate(1204.0625 0)"/>
     <use xlink:href="#DejaVuSansMono-3" transform="translate(1264.265625 0)"/>
     <use xlink:href="#DejaVuSansMono-77" transform="translate(1324.46875 0)"/>
     <use xlink:href="#DejaVuSansMono-56" transform="translate(1384.671875 0)"/>
     <use xlink:href="#DejaVuSansMono-3" transform="translate(1444.875 0)"/>
     <use xlink:href="#DejaVuSansMono-3" transform="translate(1505.078125 0)"/>
     <use xlink:href="#DejaVuSansMono-3" transform="translate(1565.28125 0)"/>
     <use xlink:href="#DejaVuSansMono-56" transform="translate(1625.484375 0)"/>
     <use xlink:href="#DejaVuSansMono-5c" transform="translate(1685.6875 0)"/>
     <use xlink:href="#DejaVuSansMono-50" transform="translate(1745.890625 0)"/>
     <use xlink:href="#DejaVuSansMono-45" transform="translate(1806.09375 0)"/>
     <use xlink:href="#DejaVuSansMono-52" transform="translate(1866.296875 0)"/>
     <use xlink:href="#DejaVuSansMono-4f" transform="translate(1926.5 0)"/>
     <use xlink:href="#DejaVuSansMono-3" transform="translate(1986.703125 0)"/>
     <use xlink:href="#DejaVuSansMono-84c" transform="translate(2046.90625 0)"/>
     <use xlink:href="#DejaVuSansMono-3" transform="translate(2107.109375 0)"/>
     <use xlink:href="#DejaVuSansMono-1b" transform="translate(2167.3125 0)"/>
     <use xlink:href="#DejaVuSansMono-11" transform="translate(2227.515625 0)"/>
     <use xlink:href="#DejaVuSansMono-1c" transform="translate(2287.71875 0)"/>
     <use xlink:href="#DejaVuSansMono-16" transform="translate(2347.921875 0)"/>
     <use xlink:href="#DejaVuSansMono-3" transform="translate(2408.125 0)"/>
     <use xlink:href="#DejaVuSansMono-77" transform="translate(2468.328125 0)"/>
     <use xlink:href="#DejaVuSansMono-56" transform="translate(2528.53125 0)"/>
    </g>
   </g>
   <g id="text_24">
    <!-- μ=4  ·  240 kHz -->
    <g style="fill: #0b0b0b" transform="translate(10.8 216.843825) scale(0.095 -0.095)">
     <defs>
      <path id="DejaVuSans-Bold-17" d="M 2356 3675 
L 1038 1722 
L 2356 1722 
L 2356 3675 
z
M 2156 4666 
L 3494 4666 
L 3494 1722 
L 4159 1722 
L 4159 850 
L 3494 850 
L 3494 0 
L 2356 0 
L 2356 850 
L 288 850 
L 288 1881 
L 2156 4666 
z
" transform="scale(0.015625)"/>
     </defs>
     <use xlink:href="#DejaVuSans-Bold-350"/>
     <use xlink:href="#DejaVuSans-Bold-20" transform="translate(73.578125 0)"/>
     <use xlink:href="#DejaVuSans-Bold-17" transform="translate(157.375 0)"/>
     <use xlink:href="#DejaVuSans-Bold-3" transform="translate(226.953125 0)"/>
     <use xlink:href="#DejaVuSans-Bold-3" transform="translate(261.765625 0)"/>
     <use xlink:href="#DejaVuSans-Bold-79" transform="translate(296.578125 0)"/>
     <use xlink:href="#DejaVuSans-Bold-3" transform="translate(334.5625 0)"/>
     <use xlink:href="#DejaVuSans-Bold-3" transform="translate(369.375 0)"/>
     <use xlink:href="#DejaVuSans-Bold-15" transform="translate(404.1875 0)"/>
     <use xlink:href="#DejaVuSans-Bold-17" transform="translate(473.765625 0)"/>
     <use xlink:href="#DejaVuSans-Bold-13" transform="translate(543.34375 0)"/>
     <use xlink:href="#DejaVuSans-Bold-3" transform="translate(612.921875 0)"/>
     <use xlink:href="#DejaVuSans-Bold-4e" transform="translate(647.734375 0)"/>
     <use xlink:href="#DejaVuSans-Bold-2b" transform="translate(714.234375 0)"/>
     <use xlink:href="#DejaVuSans-Bold-5d" transform="translate(797.921875 0)"/>
    </g>
   </g>
   <g id="text_25">
    <!-- 16 slot/ms   slot 62.5 µs   symbol ≈ 4.46 µs -->
    <g style="fill: #52514e" transform="translate(468.449732 216.606598) scale(0.085 -0.085)">
     <use xlink:href="#DejaVuSansMono-14"/>
     <use xlink:href="#DejaVuSansMono-19" transform="translate(60.203125 0)"/>
     <use xlink:href="#DejaVuSansMono-3" transform="translate(120.40625 0)"/>
     <use xlink:href="#DejaVuSansMono-56" transform="translate(180.609375 0)"/>
     <use xlink:href="#DejaVuSansMono-4f" transform="translate(240.8125 0)"/>
     <use xlink:href="#DejaVuSansMono-52" transform="translate(301.015625 0)"/>
     <use xlink:href="#DejaVuSansMono-57" transform="translate(361.21875 0)"/>
     <use xlink:href="#DejaVuSansMono-12" transform="translate(421.421875 0)"/>
     <use xlink:href="#DejaVuSansMono-50" transform="translate(481.625 0)"/>
     <use xlink:href="#DejaVuSansMono-56" transform="translate(541.828125 0)"/>
     <use xlink:href="#DejaVuSansMono-3" transform="translate(602.03125 0)"/>
     <use xlink:href="#DejaVuSansMono-3" transform="translate(662.234375 0)"/>
     <use xlink:href="#DejaVuSansMono-3" transform="translate(722.4375 0)"/>
     <use xlink:href="#DejaVuSansMono-56" transform="translate(782.640625 0)"/>
     <use xlink:href="#DejaVuSansMono-4f" transform="translate(842.84375 0)"/>
     <use xlink:href="#DejaVuSansMono-52" transform="translate(903.046875 0)"/>
     <use xlink:href="#DejaVuSansMono-57" transform="translate(963.25 0)"/>
     <use xlink:href="#DejaVuSansMono-3" transform="translate(1023.453125 0)"/>
     <use xlink:href="#DejaVuSansMono-19" transform="translate(1083.65625 0)"/>
     <use xlink:href="#DejaVuSansMono-15" transform="translate(1143.859375 0)"/>
     <use xlink:href="#DejaVuSansMono-11" transform="translate(1204.0625 0)"/>
     <use xlink:href="#DejaVuSansMono-18" transform="translate(1264.265625 0)"/>
     <use xlink:href="#DejaVuSansMono-3" transform="translate(1324.46875 0)"/>
     <use xlink:href="#DejaVuSansMono-77" transform="translate(1384.671875 0)"/>
     <use xlink:href="#DejaVuSansMono-56" transform="translate(1444.875 0)"/>
     <use xlink:href="#DejaVuSansMono-3" transform="translate(1505.078125 0)"/>
     <use xlink:href="#DejaVuSansMono-3" transform="translate(1565.28125 0)"/>
     <use xlink:href="#DejaVuSansMono-3" transform="translate(1625.484375 0)"/>
     <use xlink:href="#DejaVuSansMono-56" transform="translate(1685.6875 0)"/>
     <use xlink:href="#DejaVuSansMono-5c" transform="translate(1745.890625 0)"/>
     <use xlink:href="#DejaVuSansMono-50" transform="translate(1806.09375 0)"/>
     <use xlink:href="#DejaVuSansMono-45" transform="translate(1866.296875 0)"/>
     <use xlink:href="#DejaVuSansMono-52" transform="translate(1926.5 0)"/>
     <use xlink:href="#DejaVuSansMono-4f" transform="translate(1986.703125 0)"/>
     <use xlink:href="#DejaVuSansMono-3" transform="translate(2046.90625 0)"/>
     <use xlink:href="#DejaVuSansMono-84c" transform="translate(2107.109375 0)"/>
     <use xlink:href="#DejaVuSansMono-3" transform="translate(2167.3125 0)"/>
     <use xlink:href="#DejaVuSansMono-17" transform="translate(2227.515625 0)"/>
     <use xlink:href="#DejaVuSansMono-11" transform="translate(2287.71875 0)"/>
     <use xlink:href="#DejaVuSansMono-17" transform="translate(2347.921875 0)"/>
     <use xlink:href="#DejaVuSansMono-19" transform="translate(2408.125 0)"/>
     <use xlink:href="#DejaVuSansMono-3" transform="translate(2468.328125 0)"/>
     <use xlink:href="#DejaVuSansMono-77" transform="translate(2528.53125 0)"/>
     <use xlink:href="#DejaVuSansMono-56" transform="translate(2588.734375 0)"/>
    </g>
   </g>
   <g id="text_26">
    <!-- 0 -->
    <g style="fill: #52514e" transform="translate(95.067232 247.508525) scale(0.08 -0.08)">
     <use xlink:href="#DejaVuSans-13"/>
    </g>
   </g>
   <g id="text_27">
    <!-- 0.1 -->
    <g style="fill: #52514e" transform="translate(127.786696 247.508525) scale(0.08 -0.08)">
     <defs>
      <path id="DejaVuSans-11" d="M 684 794 
L 1344 794 
L 1344 0 
L 684 0 
L 684 794 
z
" transform="scale(0.015625)"/>
     </defs>
     <use xlink:href="#DejaVuSans-13"/>
     <use xlink:href="#DejaVuSans-11" transform="translate(63.625 0)"/>
     <use xlink:href="#DejaVuSans-14" transform="translate(95.40625 0)"/>
    </g>
   </g>
   <g id="text_28">
    <!-- 0.2 -->
    <g style="fill: #52514e" transform="translate(164.322411 247.508525) scale(0.08 -0.08)">
     <use xlink:href="#DejaVuSans-13"/>
     <use xlink:href="#DejaVuSans-11" transform="translate(63.625 0)"/>
     <use xlink:href="#DejaVuSans-15" transform="translate(95.40625 0)"/>
    </g>
   </g>
   <g id="text_29">
    <!-- 0.3 -->
    <g style="fill: #52514e" transform="translate(200.858125 247.508525) scale(0.08 -0.08)">
     <use xlink:href="#DejaVuSans-13"/>
     <use xlink:href="#DejaVuSans-11" transform="translate(63.625 0)"/>
     <use xlink:href="#DejaVuSans-16" transform="translate(95.40625 0)"/>
    </g>
   </g>
   <g id="text_30">
    <!-- 0.4 -->
    <g style="fill: #52514e" transform="translate(237.393839 247.508525) scale(0.08 -0.08)">
     <use xlink:href="#DejaVuSans-13"/>
     <use xlink:href="#DejaVuSans-11" transform="translate(63.625 0)"/>
     <use xlink:href="#DejaVuSans-17" transform="translate(95.40625 0)"/>
    </g>
   </g>
   <g id="text_31">
    <!-- 0.5 -->
    <g style="fill: #52514e" transform="translate(273.929554 247.508525) scale(0.08 -0.08)">
     <use xlink:href="#DejaVuSans-13"/>
     <use xlink:href="#DejaVuSans-11" transform="translate(63.625 0)"/>
     <use xlink:href="#DejaVuSans-18" transform="translate(95.40625 0)"/>
    </g>
   </g>
   <g id="text_32">
    <!-- 0.6 -->
    <g style="fill: #52514e" transform="translate(310.465268 247.508525) scale(0.08 -0.08)">
     <use xlink:href="#DejaVuSans-13"/>
     <use xlink:href="#DejaVuSans-11" transform="translate(63.625 0)"/>
     <use xlink:href="#DejaVuSans-19" transform="translate(95.40625 0)"/>
    </g>
   </g>
   <g id="text_33">
    <!-- 0.7 -->
    <g style="fill: #52514e" transform="translate(347.000982 247.508525) scale(0.08 -0.08)">
     <use xlink:href="#DejaVuSans-13"/>
     <use xlink:href="#DejaVuSans-11" transform="translate(63.625 0)"/>
     <use xlink:href="#DejaVuSans-1a" transform="translate(95.40625 0)"/>
    </g>
   </g>
   <g id="text_34">
    <!-- 0.8 -->
    <g style="fill: #52514e" transform="translate(383.536696 247.508525) scale(0.08 -0.08)">
     <defs>
      <path id="DejaVuSans-1b" d="M 2034 2216 
Q 1584 2216 1326 1975 
Q 1069 1734 1069 1313 
Q 1069 891 1326 650 
Q 1584 409 2034 409 
Q 2484 409 2743 651 
Q 3003 894 3003 1313 
Q 3003 1734 2745 1975 
Q 2488 2216 2034 2216 
z
M 1403 2484 
Q 997 2584 770 2862 
Q 544 3141 544 3541 
Q 544 4100 942 4425 
Q 1341 4750 2034 4750 
Q 2731 4750 3128 4425 
Q 3525 4100 3525 3541 
Q 3525 3141 3298 2862 
Q 3072 2584 2669 2484 
Q 3125 2378 3379 2068 
Q 3634 1759 3634 1313 
Q 3634 634 3220 271 
Q 2806 -91 2034 -91 
Q 1263 -91 848 271 
Q 434 634 434 1313 
Q 434 1759 690 2068 
Q 947 2378 1403 2484 
z
M 1172 3481 
Q 1172 3119 1398 2916 
Q 1625 2713 2034 2713 
Q 2441 2713 2670 2916 
Q 2900 3119 2900 3481 
Q 2900 3844 2670 4047 
Q 2441 4250 2034 4250 
Q 1625 4250 1398 4047 
Q 1172 3844 1172 3481 
z
" transform="scale(0.015625)"/>
     </defs>
     <use xlink:href="#DejaVuSans-13"/>
     <use xlink:href="#DejaVuSans-11" transform="translate(63.625 0)"/>
     <use xlink:href="#DejaVuSans-1b" transform="translate(95.40625 0)"/>
    </g>
   </g>
   <g id="text_35">
    <!-- 0.9 -->
    <g style="fill: #52514e" transform="translate(420.072411 247.508525) scale(0.08 -0.08)">
     <defs>
      <path id="DejaVuSans-1c" d="M 703 97 
L 703 672 
Q 941 559 1184 500 
Q 1428 441 1663 441 
Q 2288 441 2617 861 
Q 2947 1281 2994 2138 
Q 2813 1869 2534 1725 
Q 2256 1581 1919 1581 
Q 1219 1581 811 2004 
Q 403 2428 403 3163 
Q 403 3881 828 4315 
Q 1253 4750 1959 4750 
Q 2769 4750 3195 4129 
Q 3622 3509 3622 2328 
Q 3622 1225 3098 567 
Q 2575 -91 1691 -91 
Q 1453 -91 1209 -44 
Q 966 3 703 97 
z
M 1959 2075 
Q 2384 2075 2632 2365 
Q 2881 2656 2881 3163 
Q 2881 3666 2632 3958 
Q 2384 4250 1959 4250 
Q 1534 4250 1286 3958 
Q 1038 3666 1038 3163 
Q 1038 2656 1286 2365 
Q 1534 2075 1959 2075 
z
" transform="scale(0.015625)"/>
     </defs>
     <use xlink:href="#DejaVuSans-13"/>
     <use xlink:href="#DejaVuSans-11" transform="translate(63.625 0)"/>
     <use xlink:href="#DejaVuSans-1c" transform="translate(95.40625 0)"/>
    </g>
   </g>
   <g id="text_36">
    <!-- 1 -->
    <g style="fill: #52514e" transform="translate(460.424375 247.508525) scale(0.08 -0.08)">
     <use xlink:href="#DejaVuSans-14"/>
    </g>
   </g>
   <g id="text_37">
    <!-- time (ms) — one subframe, always 14 symbols per slot (normal CP) -->
    <g style="fill: #52514e" transform="translate(127.955257 265.824) scale(0.09 -0.09)">
     <defs>
      <path id="DejaVuSans-4c" d="M 603 3500 
L 1178 3500 
L 1178 0 
L 603 0 
L 603 3500 
z
M 603 4863 
L 1178 4863 
L 1178 4134 
L 603 4134 
L 603 4863 
z
" transform="scale(0.015625)"/>
      <path id="DejaVuSans-50" d="M 3328 2828 
Q 3544 3216 3844 3400 
Q 4144 3584 4550 3584 
Q 5097 3584 5394 3201 
Q 5691 2819 5691 2113 
L 5691 0 
L 5113 0 
L 5113 2094 
Q 5113 2597 4934 2840 
Q 4756 3084 4391 3084 
Q 3944 3084 3684 2787 
Q 3425 2491 3425 1978 
L 3425 0 
L 2847 0 
L 2847 2094 
Q 2847 2600 2669 2842 
Q 2491 3084 2119 3084 
Q 1678 3084 1418 2786 
Q 1159 2488 1159 1978 
L 1159 0 
L 581 0 
L 581 3500 
L 1159 3500 
L 1159 2956 
Q 1356 3278 1631 3431 
Q 1906 3584 2284 3584 
Q 2666 3584 2933 3390 
Q 3200 3197 3328 2828 
z
" transform="scale(0.015625)"/>
      <path id="DejaVuSans-48" d="M 3597 1894 
L 3597 1613 
L 953 1613 
Q 991 1019 1311 708 
Q 1631 397 2203 397 
Q 2534 397 2845 478 
Q 3156 559 3463 722 
L 3463 178 
Q 3153 47 2828 -22 
Q 2503 -91 2169 -91 
Q 1331 -91 842 396 
Q 353 884 353 1716 
Q 353 2575 817 3079 
Q 1281 3584 2069 3584 
Q 2775 3584 3186 3129 
Q 3597 2675 3597 1894 
z
M 3022 2063 
Q 3016 2534 2758 2815 
Q 2500 3097 2075 3097 
Q 1594 3097 1305 2825 
Q 1016 2553 972 2059 
L 3022 2063 
z
" transform="scale(0.015625)"/>
      <path id="DejaVuSans-b" d="M 1984 4856 
Q 1566 4138 1362 3434 
Q 1159 2731 1159 2009 
Q 1159 1288 1364 580 
Q 1569 -128 1984 -844 
L 1484 -844 
Q 1016 -109 783 600 
Q 550 1309 550 2009 
Q 550 2706 781 3412 
Q 1013 4119 1484 4856 
L 1984 4856 
z
" transform="scale(0.015625)"/>
      <path id="DejaVuSans-c" d="M 513 4856 
L 1013 4856 
Q 1481 4119 1714 3412 
Q 1947 2706 1947 2009 
Q 1947 1309 1714 600 
Q 1481 -109 1013 -844 
L 513 -844 
Q 928 -128 1133 580 
Q 1338 1288 1338 2009 
Q 1338 2731 1133 3434 
Q 928 4138 513 4856 
z
" transform="scale(0.015625)"/>
      <path id="DejaVuSans-af6" d="M 313 1978 
L 6088 1978 
L 6088 1528 
L 313 1528 
L 313 1978 
z
" transform="scale(0.015625)"/>
      <path id="DejaVuSans-51" d="M 3513 2113 
L 3513 0 
L 2938 0 
L 2938 2094 
Q 2938 2591 2744 2837 
Q 2550 3084 2163 3084 
Q 1697 3084 1428 2787 
Q 1159 2491 1159 1978 
L 1159 0 
L 581 0 
L 581 3500 
L 1159 3500 
L 1159 2956 
Q 1366 3272 1645 3428 
Q 1925 3584 2291 3584 
Q 2894 3584 3203 3211 
Q 3513 2838 3513 2113 
z
" transform="scale(0.015625)"/>
      <path id="DejaVuSans-58" d="M 544 1381 
L 544 3500 
L 1119 3500 
L 1119 1403 
Q 1119 906 1312 657 
Q 1506 409 1894 409 
Q 2359 409 2629 706 
Q 2900 1003 2900 1516 
L 2900 3500 
L 3475 3500 
L 3475 0 
L 2900 0 
L 2900 538 
Q 2691 219 2414 64 
Q 2138 -91 1772 -91 
Q 1169 -91 856 284 
Q 544 659 544 1381 
z
M 1991 3584 
L 1991 3584 
z
" transform="scale(0.015625)"/>
      <path id="DejaVuSans-45" d="M 3116 1747 
Q 3116 2381 2855 2742 
Q 2594 3103 2138 3103 
Q 1681 3103 1420 2742 
Q 1159 2381 1159 1747 
Q 1159 1113 1420 752 
Q 1681 391 2138 391 
Q 2594 391 2855 752 
Q 3116 1113 3116 1747 
z
M 1159 2969 
Q 1341 3281 1617 3432 
Q 1894 3584 2278 3584 
Q 2916 3584 3314 3078 
Q 3713 2572 3713 1747 
Q 3713 922 3314 415 
Q 2916 -91 2278 -91 
Q 1894 -91 1617 61 
Q 1341 213 1159 525 
L 1159 0 
L 581 0 
L 581 4863 
L 1159 4863 
L 1159 2969 
z
" transform="scale(0.015625)"/>
      <path id="DejaVuSans-49" d="M 2375 4863 
L 2375 4384 
L 1825 4384 
Q 1516 4384 1395 4259 
Q 1275 4134 1275 3809 
L 1275 3500 
L 2222 3500 
L 2222 3053 
L 1275 3053 
L 1275 0 
L 697 0 
L 697 3053 
L 147 3053 
L 147 3500 
L 697 3500 
L 697 3744 
Q 697 4328 969 4595 
Q 1241 4863 1831 4863 
L 2375 4863 
z
" transform="scale(0.015625)"/>
      <path id="DejaVuSans-55" d="M 2631 2963 
Q 2534 3019 2420 3045 
Q 2306 3072 2169 3072 
Q 1681 3072 1420 2755 
Q 1159 2438 1159 1844 
L 1159 0 
L 581 0 
L 581 3500 
L 1159 3500 
L 1159 2956 
Q 1341 3275 1631 3429 
Q 1922 3584 2338 3584 
Q 2397 3584 2469 3576 
Q 2541 3569 2628 3553 
L 2631 2963 
z
" transform="scale(0.015625)"/>
      <path id="DejaVuSans-44" d="M 2194 1759 
Q 1497 1759 1228 1600 
Q 959 1441 959 1056 
Q 959 750 1161 570 
Q 1363 391 1709 391 
Q 2188 391 2477 730 
Q 2766 1069 2766 1631 
L 2766 1759 
L 2194 1759 
z
M 3341 1997 
L 3341 0 
L 2766 0 
L 2766 531 
Q 2569 213 2275 61 
Q 1981 -91 1556 -91 
Q 1019 -91 701 211 
Q 384 513 384 1019 
Q 384 1609 779 1909 
Q 1175 2209 1959 2209 
L 2766 2209 
L 2766 2266 
Q 2766 2663 2505 2880 
Q 2244 3097 1772 3097 
Q 1472 3097 1187 3025 
Q 903 2953 641 2809 
L 641 3341 
Q 956 3463 1253 3523 
Q 1550 3584 1831 3584 
Q 2591 3584 2966 3190 
Q 3341 2797 3341 1997 
z
" transform="scale(0.015625)"/>
      <path id="DejaVuSans-f" d="M 750 794 
L 1409 794 
L 1409 256 
L 897 -744 
L 494 -744 
L 750 256 
L 750 794 
z
" transform="scale(0.015625)"/>
      <path id="DejaVuSans-5a" d="M 269 3500 
L 844 3500 
L 1563 769 
L 2278 3500 
L 2956 3500 
L 3675 769 
L 4391 3500 
L 4966 3500 
L 4050 0 
L 3372 0 
L 2619 2869 
L 1863 0 
L 1184 0 
L 269 3500 
z
" transform="scale(0.015625)"/>
      <path id="DejaVuSans-5c" d="M 2059 -325 
Q 1816 -950 1584 -1140 
Q 1353 -1331 966 -1331 
L 506 -1331 
L 506 -850 
L 844 -850 
Q 1081 -850 1212 -737 
Q 1344 -625 1503 -206 
L 1606 56 
L 191 3500 
L 800 3500 
L 1894 763 
L 2988 3500 
L 3597 3500 
L 2059 -325 
z
" transform="scale(0.015625)"/>
      <path id="DejaVuSans-53" d="M 1159 525 
L 1159 -1331 
L 581 -1331 
L 581 3500 
L 1159 3500 
L 1159 2969 
Q 1341 3281 1617 3432 
Q 1894 3584 2278 3584 
Q 2916 3584 3314 3078 
Q 3713 2572 3713 1747 
Q 3713 922 3314 415 
Q 2916 -91 2278 -91 
Q 1894 -91 1617 61 
Q 1341 213 1159 525 
z
M 3116 1747 
Q 3116 2381 2855 2742 
Q 2594 3103 2138 3103 
Q 1681 3103 1420 2742 
Q 1159 2381 1159 1747 
Q 1159 1113 1420 752 
Q 1681 391 2138 391 
Q 2594 391 2855 752 
Q 3116 1113 3116 1747 
z
" transform="scale(0.015625)"/>
      <path id="DejaVuSans-26" d="M 4122 4306 
L 4122 3641 
Q 3803 3938 3442 4084 
Q 3081 4231 2675 4231 
Q 1875 4231 1450 3742 
Q 1025 3253 1025 2328 
Q 1025 1406 1450 917 
Q 1875 428 2675 428 
Q 3081 428 3442 575 
Q 3803 722 4122 1019 
L 4122 359 
Q 3791 134 3420 21 
Q 3050 -91 2638 -91 
Q 1578 -91 968 557 
Q 359 1206 359 2328 
Q 359 3453 968 4101 
Q 1578 4750 2638 4750 
Q 3056 4750 3426 4639 
Q 3797 4528 4122 4306 
z
" transform="scale(0.015625)"/>
      <path id="DejaVuSans-33" d="M 1259 4147 
L 1259 2394 
L 2053 2394 
Q 2494 2394 2734 2622 
Q 2975 2850 2975 3272 
Q 2975 3691 2734 3919 
Q 2494 4147 2053 4147 
L 1259 4147 
z
M 628 4666 
L 2053 4666 
Q 2838 4666 3239 4311 
Q 3641 3956 3641 3272 
Q 3641 2581 3239 2228 
Q 2838 1875 2053 1875 
L 1259 1875 
L 1259 0 
L 628 0 
L 628 4666 
z
" transform="scale(0.015625)"/>
     </defs>
     <use xlink:href="#DejaVuSans-57"/>
     <use xlink:href="#DejaVuSans-4c" transform="translate(39.203125 0)"/>
     <use xlink:href="#DejaVuSans-50" transform="translate(66.984375 0)"/>
     <use xlink:href="#DejaVuSans-48" transform="translate(164.390625 0)"/>
     <use xlink:href="#DejaVuSans-3" transform="translate(225.921875 0)"/>
     <use xlink:href="#DejaVuSans-b" transform="translate(257.703125 0)"/>
     <use xlink:href="#DejaVuSans-50" transform="translate(296.71875 0)"/>
     <use xlink:href="#DejaVuSans-56" transform="translate(394.125 0)"/>
     <use xlink:href="#DejaVuSans-c" transform="translate(446.21875 0)"/>
     <use xlink:href="#DejaVuSans-3" transform="translate(485.234375 0)"/>
     <use xlink:href="#DejaVuSans-af6" transform="translate(517.015625 0)"/>
     <use xlink:href="#DejaVuSans-3" transform="translate(617.015625 0)"/>
     <use xlink:href="#DejaVuSans-52" transform="translate(648.796875 0)"/>
     <use xlink:href="#DejaVuSans-51" transform="translate(709.984375 0)"/>
     <use xlink:href="#DejaVuSans-48" transform="translate(773.359375 0)"/>
     <use xlink:href="#DejaVuSans-3" transform="translate(834.890625 0)"/>
     <use xlink:href="#DejaVuSans-56" transform="translate(866.671875 0)"/>
     <use xlink:href="#DejaVuSans-58" transform="translate(918.765625 0)"/>
     <use xlink:href="#DejaVuSans-45" transform="translate(982.140625 0)"/>
     <use xlink:href="#DejaVuSans-49" transform="translate(1045.625 0)"/>
     <use xlink:href="#DejaVuSans-55" transform="translate(1080.828125 0)"/>
     <use xlink:href="#DejaVuSans-44" transform="translate(1121.9375 0)"/>
     <use xlink:href="#DejaVuSans-50" transform="translate(1183.21875 0)"/>
     <use xlink:href="#DejaVuSans-48" transform="translate(1280.625 0)"/>
     <use xlink:href="#DejaVuSans-f" transform="translate(1342.15625 0)"/>
     <use xlink:href="#DejaVuSans-3" transform="translate(1373.9375 0)"/>
     <use xlink:href="#DejaVuSans-44" transform="translate(1405.71875 0)"/>
     <use xlink:href="#DejaVuSans-4f" transform="translate(1467 0)"/>
     <use xlink:href="#DejaVuSans-5a" transform="translate(1494.78125 0)"/>
     <use xlink:href="#DejaVuSans-44" transform="translate(1576.5625 0)"/>
     <use xlink:href="#DejaVuSans-5c" transform="translate(1637.84375 0)"/>
     <use xlink:href="#DejaVuSans-56" transform="translate(1697.03125 0)"/>
     <use xlink:href="#DejaVuSans-3" transform="translate(1749.125 0)"/>
     <use xlink:href="#DejaVuSans-14" transform="translate(1780.90625 0)"/>
     <use xlink:href="#DejaVuSans-17" transform="translate(1844.53125 0)"/>
     <use xlink:href="#DejaVuSans-3" transform="translate(1908.15625 0)"/>
     <use xlink:href="#DejaVuSans-56" transform="translate(1939.9375 0)"/>
     <use xlink:href="#DejaVuSans-5c" transform="translate(1992.03125 0)"/>
     <use xlink:href="#DejaVuSans-50" transform="translate(2051.21875 0)"/>
     <use xlink:href="#DejaVuSans-45" transform="translate(2148.625 0)"/>
     <use xlink:href="#DejaVuSans-52" transform="translate(2212.109375 0)"/>
     <use xlink:href="#DejaVuSans-4f" transform="translate(2273.296875 0)"/>
     <use xlink:href="#DejaVuSans-56" transform="translate(2301.078125 0)"/>
     <use xlink:href="#DejaVuSans-3" transform="translate(2353.171875 0)"/>
     <use xlink:href="#DejaVuSans-53" transform="translate(2384.953125 0)"/>
     <use xlink:href="#DejaVuSans-48" transform="translate(2448.4375 0)"/>
     <use xlink:href="#DejaVuSans-55" transform="translate(2509.96875 0)"/>
     <use xlink:href="#DejaVuSans-3" transform="translate(2551.078125 0)"/>
     <use xlink:href="#DejaVuSans-56" transform="translate(2582.859375 0)"/>
     <use xlink:href="#DejaVuSans-4f" transform="translate(2634.953125 0)"/>
     <use xlink:href="#DejaVuSans-52" transform="translate(2662.734375 0)"/>
     <use xlink:href="#DejaVuSans-57" transform="translate(2723.921875 0)"/>
     <use xlink:href="#DejaVuSans-3" transform="translate(2763.125 0)"/>
     <use xlink:href="#DejaVuSans-b" transform="translate(2794.90625 0)"/>
     <use xlink:href="#DejaVuSans-51" transform="translate(2833.921875 0)"/>
     <use xlink:href="#DejaVuSans-52" transform="translate(2897.296875 0)"/>
     <use xlink:href="#DejaVuSans-55" transform="translate(2958.484375 0)"/>
     <use xlink:href="#DejaVuSans-50" transform="translate(2997.84375 0)"/>
     <use xlink:href="#DejaVuSans-44" transform="translate(3095.25 0)"/>
     <use xlink:href="#DejaVuSans-4f" transform="translate(3156.53125 0)"/>
     <use xlink:href="#DejaVuSans-3" transform="translate(3184.3125 0)"/>
     <use xlink:href="#DejaVuSans-26" transform="translate(3216.09375 0)"/>
     <use xlink:href="#DejaVuSans-33" transform="translate(3285.921875 0)"/>
     <use xlink:href="#DejaVuSans-c" transform="translate(3346.21875 0)"/>
    </g>
   </g>
  </g>
 </g>
 <defs>
  <clipPath id="p08f2e0bda3">
   <rect x="31.847946" y="10.8" width="613.8" height="266.112"/>
  </clipPath>
 </defs>
</svg>
